<?xml version="1.0" encoding="UTF-8"?><svg id="Layer_2" xmlns="http://www.w3.org/2000/svg" viewBox="0 0 44.7571 45.4644"><g id="Components"><g id="b5ceb045-b6d1-4114-b335-cc515f2b741a_1"><path d="M27.571,44.164c2.4422-.0065,4.693-1.0765,6.5722-2.5597-.2393.2113,4.1769-3.9599,4.1226-3.9139,1.1302-.9295,2.3496-2.1674,3.8794-2.3375.6038.0023,1.9258-.4525,2.0074.4394-.0113.2721-.2374.4845-.5084.4796-2.0797-.2041-3.2715.8978-4.708,2.1466-.0079.0073-4.168,3.9375-4.1753,3.9442,0,0-.0401.0327-.0401.0327l-1.5635,1.0835c-1.6332,1.0646-3.6234,1.5928-5.5425,1.6499-.2666.0122-.4922-.1943-.5039-.4609-.0122-.2661.1938-.4922.46-.5039h0Z" style="fill:#c7bbab;"/><path d="M6.7082,44.8442c2.8542-.9339,5.505-2.2204,7.6918-4.3355,1.1402-.9843,2.2818-1.9984,3.6119-2.8144,1.289-.8743,2.944-1.0257,4.4522-1.2573,2.9507-.4903,6.0288-.7837,8.2871-2.7066,4.0569-3.0136,7.1216-8.8258,12.9307-8.3886.6245.0402.591.9998-.0542.9687-5.5582-.3578-8.2882,5.2092-12.3628,8.0941-2.43,1.9937-5.7023,2.3613-8.687,2.8004-1.4535.2281-2.9116.2919-4.186,1.1255-2.5795,1.5264-4.5198,4.0266-7.2573,5.3892-1.3697.6948-2.7813,1.2485-4.2329,1.7285-.166.0552-.3457-.0352-.4004-.2012-.0563-.1688.038-.3503.207-.4028h0Z" style="fill:#c7bbab;"/><path d="M.6974,38.1328c4.0778-.8232,7.6991-2.8497,10.7416-5.6774,1.5425-1.3539,3.1837-2.828,5.2603-3.5619,2.061-.7666,4.2163-.7568,6.1782-1.1851,5.4146-.8664,7.9739-6.0525,11.9608-9.2379,2.7606-1.7747,5.9225-2.4484,9.0528-3.1723.924-.1878,1.2401,1.2311.29,1.4264-2.9059.6087-6.0678,1.2452-8.5991,2.7963-2.4577,1.8525-4.2255,4.4694-6.687,6.4483-1.6452,1.3836-3.7017,2.3667-5.8203,2.7261-2.1059.4078-4.1987.3692-6.0752,1.0401-1.8999.6294-3.4668,1.9688-5.0532,3.314-3.1248,2.8114-6.9738,4.8774-11.1436,5.6297-.3356.0632-.4883-.4691-.1054-.5462h0Z" style="fill:#c7bbab;"/><path d="M.75,30.2921s3.2328-1.3289,4.6865-2.6663c1.4537-1.3374,1.6795-1.6872,3.7147-1.9625,2.0351-.2754,3.3058-.7248,4.9397-1.7574,2.9686-1.8761,4.9433-5.9975,8.6065-6.6371s4.5485-.9372,5.7696-2.042c1.2211-1.1048,13.718-13.7087,13.718-13.7087" style="fill:none; stroke:#c7bbab; stroke-linecap:round; stroke-linejoin:round; stroke-width:1.5px;"/><polyline points="36.9117 .75 42.9739 .75 42.9739 6.9905" style="fill:none; stroke:#c7bbab; stroke-linecap:round; stroke-linejoin:round; stroke-width:1.5px;"/></g></g></svg>