<?xml version="1.0" encoding="UTF-8"?><svg id="Layer_2" xmlns="http://www.w3.org/2000/svg" viewBox="0 0 46.6718 49.0952"><g id="Components"><g id="_8eff97e1-63a1-440c-977c-4b19aa11733d_1"><path d="M27.4099,5.2922l1.3805-1.8677c.2987-.4042.8758-.474,1.2623-.1527l1.7416,1.4478c.3777.314.4228.8773.0999,1.2474l-1.5612,1.7892" style="fill:none; stroke:#c7bbab; stroke-linecap:round; stroke-linejoin:round;"/><path d="M9.1164.6l3.0517.0043c1.4349.002,2.872.1523,4.2734.4602,3.7006.8129,5.9578,1.88,9.6455,4.5976.7057.52,1.3389,1.0146,1.8591,1.4475.1826.152.3724.3148.568.4875,3.6501,3.2208,5.327,4.8725,6.8334,8.5412.429,1.0448.7768,2.1199,1.0586,3.213.3151,1.222.475,2.4789.5396,3.7392l.079,1.5405-10.7178-11.3696L4.2245,41.0862c-.314.3937-.8956.4395-1.2673.0999l-2.074-1.895c-.337-.308-.3788-.824-.0956-1.1821L22.453,10.7089c.2526-.3209-.035-.5935-.3861-.8019L9.0833.7039c-.0455-.0323-.0226-.1039.0332-.1039Z" style="fill:none; stroke:#c7bbab; stroke-linecap:round; stroke-linejoin:round; stroke-width:1.2px;"/><line x1="26.2341" y1="13.0614" x2="22.4579" y2="10.0668" style="fill:none; stroke:#c7bbab; stroke-linecap:round; stroke-linejoin:round;"/><path d="M26.0332,33.1651c-.8626.3483-3.2461.2189-3.558-.7714-.0613-.3294-.12-.7188-.0257-1.047.1518-.8291.6867-1.0412,1.5049-.7487.9551.2446,1.7049,1.7365,2.0912,2.4991l-.0124.068Z" style="fill:none; stroke:#c7bbab; stroke-linecap:round; stroke-linejoin:round; stroke-width:.75px;"/><path d="M29.92,30.7284c-.8696-.3305-2.5306-2.0447-2.0867-2.9833.1789-.2833.4003-.609.6925-.7857.6747-.5053,1.2112-.2975,1.613.4731.5347.8284.0713,2.4325-.1634,3.2545l-.0553.0414Z" style="fill:none; stroke:#c7bbab; stroke-linecap:round; stroke-linejoin:round; stroke-width:.75px;"/><path d="M42.6126,23.3441c-.2955-.8821-.3586-2.3086.5482-3.5251.1302-.1747.4866-.752,1.4834.0579.3672.2983.9978.7483.6564,1.5474-.3018.9386-1.8363,1.5969-2.6209,1.9363l-.0671-.0165Z" style="fill:none; stroke:#c7bbab; stroke-linecap:round; stroke-linejoin:round; stroke-width:.75px;"/><path d="M12.728,47.9976l4.3701-5.6279c.2266-.312.6104-.5708,1.0127-.6528.524-.1602,2.2265.3479,2.8262.4311.2563.062.3838.042.5644-.0327.2981-.1356,1.383-1.5422,1.6597-1.8154,0,0,1.1675-1.3457,1.1675-1.3457.4211-.4213.8352-1.1215,1.375-1.3921.6149-.3705,1.4385-.0737,2.0684.0836,0,0,1.7285.4306,1.7285.4306.5142.1562.7715.0591,1.0522-.3276l1.0532-1.4365c.3992-.5438,2.2932-3.132,2.6587-3.6177.4476-.6092,1.9931-.8237,2.6963-1.0928,0,0,3.4121-1.0249,3.4121-1.0249.3054-.0818.9889-.309,1.3178-.3896.5838-.1496,1.3059.1209,1.6592.5532.3985.412,1.4394,1.5039,1.8496,1.9282.5186.5928,1.4209,1.2266,1.3637,2.1065.0373,1.8203.0212,4.8382.0523,6.6856,0,0,.0561,7.1308.0561,7.1308.002.2764-.2197.502-.4961.5039-.276.002-.5022-.22-.5039-.4966-.0154-2.3776-.056-8.3847-.0713-10.6787-.0047-.5868-.0131-2.1019-.0181-2.6699-.0088-.1723.0231-.5741-.0478-.7246-.0189-.1826-.3314-.3981-.4277-.5342-.6877-.7178-1.7758-1.8559-2.4634-2.5737-.3108-.3952-.7431-.3035-1.1372-.1616,0,0-.8535.2553-.8535.2553-1.3175.4206-4.177,1.2105-5.4444,1.6445-.1873.0507-.5909.7173-.7148.8554-.6972.958-2.484,3.3863-3.1582,4.3111-.3243.5601-1.1765.9476-1.8496.7505-.0498-.016-1.8286-.4509-1.9487-.4839-.4421-.0837-1.2501-.4666-1.604.002-.9606,1.1003-2.2402,2.5871-3.2027,3.6933-.4403.6391-1.2472,1.0447-1.9898.8203,0,0-1.7451-.3579-1.7451-.3579-.3742-.1087-.8735-.171-1.1254.2227,0,0-4.3672,5.6299-4.3672,5.6299-.3769.4958-1.1771-.0856-.7749-.6016h0Z" style="fill:#c7bbab;"/><path d="M21.0346,48.5249c.4705-1.7385,2.6531-1.4606,3.8183-2.3604,1.126-.8345,2.4499-1.6368,3.2637-2.7778.3066-.5142.5053-1.0871.9194-1.5352.2375-.3051.5159-.4731.5859-.7588.1082-.4555.4052-1.8926.5152-2.3668.0628-.3178.5686-.2177.4985.1041-.1556.6472-.3525,2.0493-.5707,2.6538-.7424.9167-.9487,1.1876-1.4452,2.2296-.8685,1.2653-2.1638,2.0715-3.3497,2.9819-.9676.8663-3.2556.8631-3.4991,1.9697-.0699.5108-.8604.3689-.7363-.1401h0Z" style="fill:#c7bbab;"/><path d="M32.0483,48.2983c.0828-.6798.4303-1.3295,1.1622-1.4203,1.0211-.3388,2.032-.8144,2.8427-1.5132,2.0033-1.539.9964-4.0166,1.5365-6.1045,3.3004-4.5845,3.8398-2.3529,8.3122-2.3509.6735-.0234.6921,1.0099.0102.9999-.9165-.0244-1.83-.1416-2.705-.3833-.6553-.1058-1.7504-.5594-2.3735-.3687-.9583.2879-2.0744,1.5488-2.7349,2.3432-.377,1.1607-.0731,2.5921-.4439,3.8135-.3382,1.8593-2.1543,2.9016-3.788,3.46-.3961.1686-.8752.1941-1.2354.3969-.3403.2613-.4912.7095-.583,1.1275h0Z" style="fill:#c7bbab;"/></g></g></svg>