<?xml version="1.0" encoding="UTF-8"?><svg id="Layer_2" xmlns="http://www.w3.org/2000/svg" viewBox="0 0 57.0204 50.5929"><g id="Components"><g id="cd4aa1aa-11cb-4e1e-b008-cd067c27a9f6_5"><path d="M47.8522,34.9072l-7.3948-11.5001c-.0758-.1179-.2408-.1367-.3412-.0388l-1.6018,1.5623c-.812.792-2.1481.6302-2.7475-.3327l-6.9095-11.0991-6.9342,11.2595c-.6444,1.0463-2.1312,1.1377-2.8988.1781l-1.289-1.6114c-.1145-.1432-.3353-.1333-.4366.0194l-8.0425,12.1206c-.0862.1299-.1856.2449-.3026.3479-.6122.5386-2.697,2.3621-3.8048,3.193-1.3081.981-2.0438,1.7168-2.4526,1.7986-.4088.0818-2.6161,1.3898-2.1256,2.2891.8325,2.5125,3.3884,3.6827,5.8709,4.1056,6.1818,1.187,10.7219,2.5465,17.5734,2.8935.0539.0027,8.0838-.0371,8.1378-.0387,6.4168-.1915,17.2162-1.1713,22.6181-3.9777,2.3328-1.1693,2.5407-4.5575-.6516-5.2718,0,0-1.2263-.7358-1.7986-2.0438-.4682-1.0703-3.0163-2.7426-3.9273-3.3153-.2195-.138-.4011-.3201-.5413-.5382Z" style="fill:none; stroke:#fff; stroke-linecap:round; stroke-linejoin:round;"/><path d="M13.3582,48.313c1.8349-1.3103,3.4554-2.7644,5.664-3.4821.4132-.06.7379-.0334,1.1104-.0727,0,0,1.0791-.0888,1.0791-.0888,2.9058-.1412,5.682.714,8.6045.4182,4.8963-.2018,10.7297-1.5859,14.8536,1.8859,0,.0001,1.6787,1.3131,1.6787,1.3131.2339.164.2875.4943.1094.7202-.1735.2226-.4986.2566-.7148.0757,0,0-1.6719-1.397-1.6719-1.397l-.835-.6982c-1.3417-1.0358-3.1761-1.1754-4.8501-1.4561-4.1001-.4019-8.7676.6978-12.9004.2378-1.7854-.2852-3.4964-.4428-5.2817-.1805,0-.0001-.5542.0404-.5542.0404-.186.0088-.4033.0088-.4829.0342-1.8747.6543-3.5969,2.208-5.1871,3.4335-.5029.4151-1.153-.3737-.6215-.7836h0Z" style="fill:#fff;"/><path d="M4.2391,47.1612c-1.1195-1.3417,1.0697-2.1874,1.9863-2.5308.9092-.3403,1.9297-.5615,2.8521-.6733.4482-.0703.7358-.1919,1.0391-.5142,1.0649-.9802,1.3698-2.8166,2.9413-3.2442,1.9874-.039,3.6617-.7455,5.6978-.9101,1.0635-.0176,1.9531.5024,2.8179.5,1.0498.0742,1.9136.4263,2.8442.6509,1.3294.3207,2.734.7872,4.082.5206.4873-.1275.9678-.1832,1.4482-.2359,1.641-.1964,3.3184-.1291,4.9233-.4789,1.9483-1.0466,4.3132-1.2714,6.3955-.6249.6157.1532,1.7759.4344,2.4033.4647,1.2261.2165,2.1299,1.1038,2.963,1.8462.1669.2343.3474.5345.5991.6875.764.3985,1.8865.7173,2.7353.9654,1.1814.4615,1.8885,1.2108,2.6232,2.2035.2141.5324,1.009.9008.5356,1.4478-.1968.1945-.5127.1913-.7071-.0049-.5611-.5671-.6854-1.0934-1.271-1.6284-1.2049-1.4063-2.9674-1.2624-4.4766-2.1553-.3686-.2607-.6186-.5503-.8423-.9365l.0796.1104c-.6931-.705-1.4407-1.4896-2.3325-1.7339-.6678-.0829-1.8196-.4111-2.4814-.5898-1.8008-.5951-3.6594-.602-5.3838.1637-.8648.5168-1.9041.4884-2.8687.5683-1.4098.0973-2.8454.0949-4.2104.4248-.5127.1358-1.0229.1172-1.5107.0762-1.8855-.1466-3.7514-.9825-5.561-1.1856-1.0581-.0204-1.9238-.5224-2.794-.4824-1.7646.1538-3.71.9453-5.5557.9946-.7441.1543-1.1382,1.1011-1.6562,1.9048-.5234.8441-1.2448,1.8757-2.3306,1.9912-1.5081.2892-3.1426.6344-4.2701,1.6616-.0849.1275.0201.0465-.0824-.0272.5103.4156-.1315,1.1849-.6323.7744h0Z" style="fill:#fff;"/><polyline points="28.8575 13.4988 28.8575 8.3207 28.8575 .5 38.5862 4.5059 29.2655 8.3207" style="fill:none; stroke:#fff; stroke-linecap:round; stroke-linejoin:round;"/><path d="M9.825,35.4805l2.751.1226s-.0845.002-.0845.002c.3889-.0843,1.028-.1945,1.3838-.2837.3512-.0731.7866-.457,1.0634-.6719.0998-.0961.2432-.154.3692-.0849.7054.351,1.5577.402,2.2974.5186.6677.0912,1.6441-.2932,2.3071-.4034.9124-.0131,1.8249-.0548,2.7368-.0952,0,0-.187.0386-.187.0386l3.1221-1.1553c.0601-.0225.124-.0273.1831-.0176.2118.0122.4159.031.4106-.2378-.5692-2.3341-2.9975-3.9692-4.7205-5.5241-.0122-.0086.146.0816.1439.0797-.6882-.2816-1.5214-.6478-1.584-1.5234-.0005-.2617.2115-.4741.4732-.4741.2617-.0005.4741.2114.4746.4731-.0186-.0068.0815.1709.2817.2959.2283.1818.5646.2624.8106.416,1.6674,1.5238,3.4025,3.0268,4.4581,5.0747.4507.8395.5302,2.2505-.8776,2.0035-.0004,0,.1851-.0172.1827-.0171,0,0-2.9834,1.4766-2.9834,1.4766-.9593.0837-1.9536-.0823-2.9248-.0571.3804-.0594-1.144.2437-1.0791.2358-1.222.3868-2.4573-.2854-3.6865-.1207-.0004.0002.3722-.0861.3677-.0844-.6773.4937-1.3761.7551-2.2022.7655,0,0-.7187.0684-.7187.0684-.0208,0-.0634.0086-.0849.0019,0,0-2.7236-.4038-2.7236-.4038-.2526-.0345-.2213-.4339.04-.4185h0Z" style="fill:#fff;"/><path d="M35.4891,33.9288l-1.3369-1.9634c-.019-.0283-.0308-.0591-.0352-.0903,0-.0005-.0182-.1333-.0181-.1338,0,0,.0742-1.7368.0742-1.7368.1096-.7067.5682-1.5632,1.232-1.9844.4447-.3181,1.1109-.7797,1.1538-1.3057,0,0,.0591-1.3257.0591-1.3257-.0099-.1175.0785-.2284.2012-.2212.0996.0044.1782.085.1826.1831l.0591,1.3896c-.0059.6021-.4048,1.0088-.7192,1.3467-.2991.3172-.6839.5414-.9272.9033-.2368.332-.3081.644-.4038,1.1221l.0142-.1079c0,.0006.0743,1.7368.0742,1.7373,0,0-.0527-.2236-.0527-.2236l.7686,2.2476c.073.195-.215.3386-.3257.1631h0Z" style="fill:#fff;"/><path d="M41.5179,25.0245l-1.4536,3.501-.0078-.3438.5483.916-.1074-.1182c.3003.2222.5317.5327.6543.8818.1504.5476.5304,2.2472.606,2.6157.2652.5578.5298,1.5646.9531,1.9912.4002.4704,1.3941.7455,1.9493,1.023,1.1195.5186,3.2542.268,4.5141.3731.0488.0009.0879.0414.0869.0907-.0015.0474-.04.0854-.0869.0864-.848-.0061-2.6581.0904-3.481.0639-.7021-.0063-1.6047-.4349-2.2583-.6714-.3516-.1167-.7783-.3223-1.0708-.6245-.5517-.5226-.8102-1.4574-1.1475-2.0976-.0046-.0083-.0128-.037-.0156-.0454,0,0-.4775-1.731-.4775-1.731-.1622-.6556-.245-1.0515-.7681-1.4628,0,0-.5195-.9332-.5195-.9332-.0695-.105-.0742-.2427-.0078-.3442,0,0,2.0283-3.2031,2.0283-3.2031.0214-.0336.0783-.0066.0615.0322h0Z" style="fill:#fff;"/></g></g></svg>