<?xml version="1.0" encoding="UTF-8"?><svg id="Layer_2" xmlns="http://www.w3.org/2000/svg" viewBox="0 0 43.8527 48.7169"><g id="Components"><g id="c4757fea-337b-475b-b04e-d12d9c6e3103_5"><path d="M18.1801.8127l10.8457,2.9871,10.2678,5.6815,3.7404,16.458c.1309.5759.0734,1.1785-.164,1.7193l-4.3648,9.9421-6.5699,8.2343-9.458,2.1319h-10.6022l-4.818-5.5483L.75,31.6439l1.9272-14.1035,3.4887-8.0573c.1247-.2881.3235-.5381.576-.7245L17.3652.9137c.2353-.1738.5443-.2121.815-.101Z" style="fill:none; stroke:#fff; stroke-linecap:round; stroke-linejoin:round; stroke-width:1.5px;"/><polyline points="17.8607 1.4307 21.9928 12.4596 18.3574 21.5537 14.5031 23.2343 2.6772 17.5404" style="fill:none; stroke:#fff; stroke-linecap:round; stroke-linejoin:round; stroke-width:1.5px;"/><polyline points="8.0207 42.331 14.0651 27.7895 14.5031 23.2343" style="fill:none; stroke:#fff; stroke-linecap:round; stroke-linejoin:round; stroke-width:1.5px;"/><polyline points="18.3574 21.5537 33.3369 32.1695 42.8212 26.8509" style="fill:none; stroke:#fff; stroke-linecap:round; stroke-linejoin:round; stroke-width:1.5px;"/><polyline points="31.9353 45.8349 29.9205 41.1922 33.3369 32.1695" style="fill:none; stroke:#fff; stroke-linecap:round; stroke-linejoin:round; stroke-width:1.5px;"/><line x1="15.4377" y1="47.8302" x2="29.9205" y2="41.1922" style="fill:none; stroke:#fff; stroke-linecap:round; stroke-linejoin:round; stroke-width:1.5px;"/><line x1="21.9928" y1="12.4596" x2="39.2937" y2="9.4813" style="fill:none; stroke:#fff; stroke-linecap:round; stroke-linejoin:round; stroke-width:1.5px;"/></g></g></svg>