<?xml version="1.0" encoding="UTF-8"?><svg id="Layer_2" xmlns="http://www.w3.org/2000/svg" viewBox="0 0 44.7572 45.4646"><g id="Components"><g id="b5ceb045-b6d1-4114-b335-cc515f2b741a_5"><path d="M27.5711,44.1639c2.4417-.0058,4.6929-1.0766,6.5722-2.5592-.2387.2094,4.1768-3.9598,4.1226-3.9144,1.1299-.929,2.3499-2.1677,3.8789-2.3375.604.0029,1.9258-.4529,2.0074.4394-.0108.2721-.2374.4845-.5079.4796-2.0952-.1987-3.2583.8906-4.708,2.1466-.0079.0073-4.168,3.938-4.1753,3.9447,0,0-.0405.0327-.0405.0327l-1.563,1.083c-1.6334,1.0647-3.6234,1.5924-5.5425,1.6504-.2666.0118-.4922-.1948-.5044-.4609-.0117-.2666.1938-.4922.4604-.5044h0Z" style="fill:#fff;"/><path d="M6.7083,44.8441c2.8539-.9339,5.5052-2.2203,7.6913-4.3355,1.1407-.9843,2.2823-1.998,3.6124-2.8144,1.2885-.8743,2.9435-1.0253,4.4517-1.2573,2.9512-.4898,6.0293-.7837,8.2876-2.7066,4.0571-3.0135,7.1218-8.8258,12.9307-8.3886.6316.0416.5861,1.0134-.0655.9682-5.5525-.3489-8.2798,5.2117-12.3516,8.0951-2.4315,1.9931-5.702,2.3606-8.6874,2.8004-1.4534.2279-2.9114.2911-4.1855,1.1255-2.5796,1.5254-4.5199,4.0269-7.2573,5.3887-1.3701.6948-2.7813,1.2485-4.2329,1.729-.1665.0547-.3457-.0352-.4009-.2017-.0558-.1687.0385-.3499.2075-.4028h0Z" style="fill:#fff;"/><path d="M.6971,38.1326c4.0781-.8231,7.6988-2.8494,10.7416-5.6774,1.5425-1.3534,3.1842-2.828,5.2603-3.5614,2.061-.7671,4.2168-.7573,6.1782-1.1851,5.4155-.8665,7.9737-6.053,11.9613-9.2384,2.7608-1.7749,5.9227-2.4478,9.0528-3.1723.9237-.1878,1.2404,1.233.2895,1.4264-2.9055.6093-6.0672,1.245-8.5986,2.7963-2.4579,1.8527-4.2259,4.4696-6.687,6.4488-1.646,1.3829-3.7018,2.3668-5.8208,2.7256-2.1059.4082-4.1982.3692-6.0747,1.0401-1.8999.6294-3.4668,1.9688-5.0532,3.314-3.1253,2.8113-6.9738,4.8773-11.1441,5.6297-.3352.0633-.4875-.4691-.1054-.5462h0Z" style="fill:#fff;"/><path d="M.75,30.2921s3.2328-1.3289,4.6865-2.6663c1.4537-1.3374,1.6795-1.6872,3.7147-1.9625s3.3058-.7248,4.9397-1.7574c2.9686-1.8761,4.9433-5.9975,8.6065-6.6371s4.5485-.9372,5.7696-2.042c1.2211-1.1048,13.718-13.7087,13.718-13.7087" style="fill:none; stroke:#fff; stroke-linecap:round; stroke-linejoin:round; stroke-width:1.5px;"/><polyline points="36.9117 .75 42.9739 .75 42.9739 6.9905" style="fill:none; stroke:#fff; stroke-linecap:round; stroke-linejoin:round; stroke-width:1.5px;"/></g></g></svg>