<?xml version="1.0" encoding="UTF-8"?><svg id="Layer_2" xmlns="http://www.w3.org/2000/svg" viewBox="0 0 46.6719 49.0952"><g id="Components"><g id="_8eff97e1-63a1-440c-977c-4b19aa11733d_5"><path d="M27.4099,5.2922l1.3805-1.8677c.2987-.4042.8758-.474,1.2623-.1527l1.7416,1.4478c.3777.314.4228.8773.0999,1.2474l-1.5612,1.7892" style="fill:none; stroke:#fff; stroke-linecap:round; stroke-linejoin:round;"/><path d="M9.1164.6l3.0517.0043c1.4349.002,2.872.1523,4.2734.4602,3.7006.8129,5.9578,1.88,9.6455,4.5976.7057.52,1.3389,1.0146,1.8591,1.4475.1826.152.3724.3148.568.4875,3.6501,3.2208,5.327,4.8725,6.8334,8.5412.429,1.0448.7768,2.1199,1.0586,3.213.3151,1.222.475,2.4789.5396,3.7392l.079,1.5405-10.7178-11.3696L4.2245,41.0862c-.314.3937-.8956.4395-1.2673.0999l-2.074-1.895c-.337-.308-.3788-.824-.0956-1.1821L22.453,10.7089c.2526-.3209-.035-.5935-.3861-.8019L9.0833.7039c-.0455-.0323-.0226-.1039.0332-.1039Z" style="fill:none; stroke:#fff; stroke-linecap:round; stroke-linejoin:round; stroke-width:1.2px;"/><line x1="26.2341" y1="13.0614" x2="22.4579" y2="10.0668" style="fill:none; stroke:#fff; stroke-linecap:round; stroke-linejoin:round;"/><path d="M26.0332,33.1651c-.8626.3483-3.2461.2189-3.558-.7714-.0613-.3294-.12-.7188-.0257-1.047.1518-.8291.6867-1.0412,1.5049-.7487.9551.2446,1.7049,1.7365,2.0912,2.4991l-.0124.068Z" style="fill:none; stroke:#fff; stroke-linecap:round; stroke-linejoin:round; stroke-width:.75px;"/><path d="M29.92,30.7284c-.8696-.3305-2.5306-2.0447-2.0867-2.9833.1789-.2833.4003-.609.6925-.7857.6747-.5053,1.2112-.2975,1.613.4731.5347.8284.0713,2.4325-.1634,3.2545l-.0553.0414Z" style="fill:none; stroke:#fff; stroke-linecap:round; stroke-linejoin:round; stroke-width:.75px;"/><path d="M42.6126,23.3441c-.2955-.8821-.3586-2.3086.5482-3.5251.1302-.1747.4866-.752,1.4834.0579.3672.2983.9978.7483.6564,1.5474-.3018.9386-1.8363,1.5969-2.6209,1.9363l-.0671-.0165Z" style="fill:none; stroke:#fff; stroke-linecap:round; stroke-linejoin:round; stroke-width:.75px;"/><path d="M12.7281,47.9975s4.3701-5.6279,4.3701-5.6279c.2266-.312.6104-.5708,1.0127-.6528.5251-.1602,2.2258.3481,2.8262.4316.2563.0616.3838.0415.5644-.0332.2943-.1324,1.385-1.5445,1.6597-1.8154,0,0,1.1675-1.3457,1.1675-1.3457.4207-.4211.8356-1.1216,1.375-1.3921.6153-.3699,1.4384-.073,2.0684.0836,0,0,1.7285.4306,1.7285.4306.5142.1562.7715.0591,1.0522-.3276l1.0532-1.4365c.3985-.5428,2.2937-3.1327,2.6587-3.6177.4519-.6116,1.9907-.8224,2.6963-1.0928,0,0,3.4121-1.0249,3.4121-1.0249.3041-.0813.9895-.3092,1.3178-.3896.5835-.149,1.3061.1206,1.6587.5537.3994.4115,1.4398,1.5037,1.8501,1.9282.5186.5928,1.4215,1.2261,1.3632,2.1065.0389,1.8199.0211,4.8381.0528,6.6851,0,0,.0561,7.1308.0561,7.1308.002.2764-.2202.502-.4961.5039-.2765.0025-.5022-.22-.5039-.4966-.0157-2.3773-.0567-8.3849-.0713-10.6787-.005-.5865-.0137-2.1022-.0181-2.6699-.0087-.1722.0231-.5738-.0478-.7246-.0376-.1698-.3189-.4078-.4282-.5342-.6871-.7183-1.7758-1.8554-2.4629-2.5737-.3111-.3952-.743-.3035-1.1372-.1616,0,0-.8535.2553-.8535.2553-1.3184.4207-4.1766,1.2105-5.4448,1.6445-.1835.0586-.5929.7126-.7144.856-.698.9582-2.4836,3.3855-3.1582,4.3105-.3246.5599-1.1762.948-1.8496.7505-.0487-.0155-1.8294-.4512-1.9487-.4839-.443-.0838-1.2502-.4669-1.6045.0025-.9599,1.1004-2.2401,2.5868-3.2022,3.6929-.4405.639-1.2469,1.0446-1.9898.8203,0,0-1.7451-.3579-1.7451-.3579-.3742-.1085-.8734-.1711-1.1254.2227,0,0-4.3677,5.6299-4.3677,5.6299-.3773.4964-1.1769-.0858-.7744-.6016h0Z" style="fill:#fff;"/><path d="M21.0342,48.5248c.4714-1.7383,2.6532-1.4606,3.8188-2.3604,1.1255-.8349,2.45-1.6366,3.2637-2.7778.3061-.5137.5051-1.0874.9194-1.5347.238-.3052.5151-.4738.5859-.7593.1077-.4556.4052-1.8921.5147-2.3663.0629-.3183.5694-.2187.4985.1041-.1554.6472-.3519,2.0488-.5702,2.6533-.7365.9084-.9545,1.1965-1.4452,2.2296-.869,1.2653-2.1637,2.0715-3.3497,2.9819-.9673.8669-3.2556.8632-3.4991,1.9697-.0709.5108-.8597.3689-.7368-.1401h0Z" style="fill:#fff;"/><path d="M32.0484,48.2983c.0821-.6795.4306-1.3293,1.1617-1.4203,1.0214-.3383,2.0323-.8145,2.8432-1.5132,2.003-1.5392.9963-4.0165,1.5365-6.1045,3.2997-4.5844,3.8401-2.3528,8.3122-2.3509.6731-.0235.6919,1.0101.0102.9999-.9165-.0239-1.8305-.1416-2.705-.3833-.655-.1058-1.7509-.5595-2.3735-.3687-.9587.2879-2.074,1.549-2.7354,2.3432-.3759,1.1613-.0729,2.5919-.4434,3.8135-.3384,1.8594-2.1538,2.9017-3.788,3.46-.3961.1686-.8752.1941-1.2354.3969-.3403.2613-.4912.71-.583,1.1275h0Z" style="fill:#fff;"/></g></g></svg>