<?xml version="1.0" encoding="UTF-8"?><svg id="Layer_2" xmlns="http://www.w3.org/2000/svg" viewBox="0 0 400.0385 163.9565"><g id="Components"><g id="c7d29fe5-a87b-4058-a29b-1937da28998a_5"><rect x="176.3218" y="4.3314" width="1" height="159.625" style="fill:#fff;"/><path d="M11.3729.0377l60.5279,24.491c1.9931.8064,3.6324,2.2785,4.6302,4.1829,2.3947,4.5703,7.2306,13.8228,4.5948,16.0644-4.8405,4.1164-11.2562,5.4115-16.5156,8.7877-1.504.9655-2.6437,2.3365-4.2426,3.1807-1.4832.7831-3.0747,1.3712-4.6763,1.8602-2.8992.8851-6.3134,1.7468-9.3616,1.2271-5.4789-.934-6.185-2.0513-9.3543-4.8124-3.2769-2.8548-4.8929-5.8642-6.0731-8.6149-2.2403-5.2216-3.6491-16.3076-9.8711-19.9676-6.222-3.66-9.6545-6.0125-11.0895-8.4506-3.0045-5.1048-1.3615-14.7873.6393-17.5099.2223-.3025.444-.5795.792-.4387Z" style="fill:#fff;"/><path d="M71.5576,56.9171c-.9037.077-1.7754.2819-2.6193.6144-4.1132,1.6203-16.377,6.9762-16.7218,13.3554-.4145,7.6675-.4145,15.7493,2.279,18.2371,2.5984,2.3999,5.4833,4.4566,8.1909,6.7266,1.9255,1.6143,4.222,4.6307,7.1356,4.0509,2.083-.4145,10.1668-4.5956,12.0285-9.2013,1.2315-3.0467,5.0011-7.0424,2.6295-10.6147-1.3585-2.0462-2.3225-5.2679-2.8993-8.166-.8435-4.238,7.4095-15.396.7908-15.6649-1.8451-.075-8.0889.4305-10.8138.6626Z" style="fill:#fff;"/><path d="M139.4393,56.6792v56.1623s-8.5893.024-11.2331-2.4165c-2.6438-2.4405-7.0105-5.1819-12.2684-8.9384-2.9266-2.0909-7.0007-5.6923-10.5392-6.348-3.4485-.639-7.6448-1.461-9.7193-4.6147-2.4051-3.6563-3.5747-8.4412-2.1878-12.7454,1.4286-4.4336,1.8492-9.0626-.0521-13.4644-2.6743-6.1913-.5943-13.1741,1.1886-15.1055s6.5309-5.8625,10.1028-5.8284c3.5719.0341,34.7085,13.299,34.7085,13.299Z" style="fill:#fff;"/><path d="M76.8454,157.1293h62.5939v-26.8867s-7.7026-11.0264-13.1735-12.6435c-5.4709-1.6171-4.2406-1.5725-7.0252-2.4298-2.7845-.8574-5.7988-.9038-8.7886-2.8293-5.1068-3.289-9.6588-11.6602-13.5745-13.4607s-10.2679,0-10.2679,0c0,0-5.0669,3.2668-6.7872,5.9158-2.7434,4.2245-8.052,7.1907-7.9665,13.1604.0946,6.6067-4.8576,8.2288-5.9293,20.7056-.4258,4.9567,3.5409,10.9743,5.8033,13.4607,2.2624,2.4864,5.1153,5.0075,5.1153,5.0075Z" style="fill:#fff;"/><path d="M0,128.5788v28.5504s56.0653.2449,56.0653.2449c.1704,0,.3217-.0912.3953-.2452.8798-1.8418.8547-4.5119,1.0179-6.4988.2766-3.3681,1.9544-4.6539,1.064-10.7088-1.9853-13.5003,5.8272-17.9163,4.0959-22.7947-4.4406-12.5126-11.4373-16.8335-14.4248-17.8084-7.6404-2.4932-12.2878,13.2584-18.3426,16.0275-6.1562,2.8155-7.0019,4.3339-11.9886,6.8048-7.4869,3.7097-17.2817,4.6389-17.8825,6.4282Z" style="fill:#fff;"/><path d="M0,31.4804v75.205s.4098.59,5.3313,3.4523c3.669,2.1338,9.857,3.5394,15.8441,1.306,5.5821-2.0824,26.1443-21.5923,23.7176-36.6632-.8497-5.277.6367-8.6465-4.1163-9.8018-5.6619-1.3762-12.2605-8.4081-14.1477-10.6334-2.7276-3.2163-.297-12.0556-5.3495-16.1895C16.2271,34.0219,2.2878,29.6228,0,31.4804Z" style="fill:#fff;"/><path d="M210.07,47.9192c.7142,0,1.4214-.0981,2.1206-.2948s1.3258-.4881,1.8806-.8745c.5538-.386.9981-.8596,1.3337-1.4209.3347-.5608.502-1.2132.502-1.9568,0-.889-.2291-1.6794-.6883-2.3721-.4592-.6918-1.0608-1.3258-1.8039-1.902-.7431-.5752-1.5927-1.1181-2.547-1.6286-.9542-.51-1.9274-1.02-2.9185-1.5305-.9911-.51-1.9643-1.0454-2.9185-1.6067-.9542-.5608-1.8039-1.1878-2.547-1.8801s-1.3447-1.4647-1.8039-2.3174c-.4582-.8526-.6883-1.8328-.6883-2.9404s.2082-2.1351.6235-3.0828c.4154-.9468,1.023-1.767,1.8248-2.4593.8018-.6918,1.7889-1.2351,2.9623-1.6286,1.1734-.3934,2.5181-.5902,4.0341-.5902,1.3696,0,2.5938.1459,3.6725.4373,1.0787.2914,2.026.7212,2.8418,1.2894.8158.5688,1.509,1.268,2.0768,2.0992.5688.8307,1.0279,1.7924,1.3776,2.8856l-2.4922,1.1365c-.2918-.8885-.6634-1.7013-1.1146-2.4374-.4522-.7356-.9921-1.3666-1.6186-1.891-.6265-.5249-1.3517-.9293-2.1744-1.2132-.8237-.2844-1.7531-.4263-2.788-.4263-.9184,0-1.7202.1275-2.4045.3825-.6853.255-1.257.5902-1.7162,1.0055-.4592.4154-.8018.882-1.0279,1.3995s-.3387,1.0459-.3387,1.5847c0,.758.2331,1.4538.7002,2.0878.4662.634,1.0847,1.2316,1.8577,1.7929.773.5608,1.6505,1.1036,2.6346,1.6286.9841.5244,1.9852,1.0568,3.0061,1.5957,1.02.5394,2.022,1.1007,3.0061,1.6834.9831.5832,1.8617,1.2212,2.6336,1.913.773.6923,1.3925,1.4503,1.8587,2.2735.4662.8237.6992,1.7456.6992,2.7656,0,1.1515-.2181,2.2337-.6554,3.2467-.4373,1.013-1.0937,1.8945-1.9672,2.6451-.8745.751-1.9613,1.3447-3.2581,1.782-1.2969.4373-2.8059.6559-4.5251.6559-1.3995,0-2.6456-.1529-3.7383-.4592-1.0937-.3063-2.0589-.7505-2.8966-1.3337-.8387-.5827-1.5559-1.2929-2.1535-2.1316-.5976-.8377-1.0857-1.7959-1.4652-2.8747l2.6017-1.0713c.3058.9478.7182,1.7929,1.2351,2.536.517.7436,1.1186,1.3741,1.8039,1.891.6853.5175,1.4463.9149,2.285,1.1913.8377.2774,1.7302.4154,2.6774.4154Z" style="fill:#fff;"/><path d="M244.282,49.756c-2.2451,0-4.3399-.4009-6.2852-1.2028-1.9463-.8013-3.6367-1.898-5.072-3.29-1.4363-1.3915-2.5659-3.0171-3.3886-4.8753-.8237-1.8582-1.2351-3.8438-1.2351-5.9575,0-1.384.1853-2.7178.5568-4.0007.3725-1.2819.9004-2.4772,1.5857-3.5854.6843-1.1071,1.511-2.1166,2.4812-3.0276.9692-.9109,2.0439-1.6908,3.2243-2.3393,1.1803-.6484,2.4553-1.151,3.8259-1.5085,1.3696-.3571,2.8059-.5354,4.307-.5354s2.9364.1783,4.307.5354c1.3696.3576,2.6486.8601,3.8359,1.5085,1.1883.6484,2.2631,1.4284,3.2253,2.3393.9622.9109,1.7889,1.9204,2.4812,3.0276.6923,1.1081,1.2242,2.3034,1.5957,3.5854.3715,1.2829.5578,2.6167.5578,4.0007,0,1.3995-.1863,2.7516-.5578,4.0555-.3715,1.3049-.9034,2.525-1.5957,3.6621-.6923,1.1365-1.519,2.1719-2.4812,3.1043-.9622.9328-2.037,1.7347-3.2253,2.405-1.1873.6704-2.4663,1.1878-3.8359,1.5519-1.3706.3646-2.8059.5468-4.307.5468ZM244.282,48.3132c1.6614,0,3.1297-.3461,4.4046-1.0384,1.276-.6923,2.3507-1.658,3.2253-2.8971.8745-1.2386,1.5339-2.7033,1.9782-4.3942.4442-1.6903.6664-3.5415.6664-5.5531,0-1.9961-.2221-3.8254-.6664-5.4869-.4442-1.6619-1.1036-3.0938-1.9782-4.2961s-1.9493-2.1351-3.2253-2.7985c-1.275-.6629-2.7432-.9946-4.4046-.9946-1.6913,0-3.1735.3317-4.4494.9946-1.275.6634-2.3467,1.5962-3.2133,2.7985-.8676,1.2023-1.519,2.6341-1.9563,4.2961-.4373,1.6614-.6564,3.4907-.6564,5.4869,0,2.0116.2191,3.8628.6564,5.5531.4373,1.6908,1.0887,3.1555,1.9563,4.3942.8666,1.2391,1.9384,2.2048,3.2133,2.8971,1.276.6923,2.7581,1.0384,4.4494,1.0384Z" style="fill:#fff;"/><path d="M269.0931,20.0895h4.8748v18.8227c0,1.2391.2112,2.4015.6345,3.4872.9836,2.5226,3.259,4.7566,5.9825,5.227,2.4676.4262,4.9174-.5936,6.6198-2.3743.7799-.8158,1.3776-1.767,1.7929-2.8527.4154-1.0857.6225-2.2481.6225-3.4872v-18.8227h4.5042v18.8227c0,1.4866-.2401,2.8861-.7212,4.1974-.4811,1.3118-1.2351,2.4598-2.2631,3.4434-1.0269.9836-2.3428,1.7635-3.9454,2.3393-1.6037.5757-3.5271.8636-5.7722.8636-1.9961,0-3.7632-.2879-5.3011-.8636-1.5379-.5757-2.8278-1.3591-3.8697-2.3502-1.0419-.9911-1.8288-2.1535-2.3607-3.4867-.5319-1.3337-.7979-2.7581-.7979-4.2741v-18.6918Z" style="fill:#fff;"/><path d="M320.7065,21.5104c-1.7491,0-3.3637.3098-4.8429.9288-1.4792.6201-2.7541,1.5085-3.8259,2.6675-1.0708,1.1584-1.9055,2.5579-2.5031,4.1974-.5976,1.6395-.8965,3.4723-.8965,5.4983,0,2.0404.3247,3.8802.9732,5.5202.6484,1.6395,1.5369,3.035,2.6675,4.1865,1.1285,1.1515,2.4593,2.037,3.9893,2.656,1.53.6196,3.1705.9293,4.9186.9293,1.268,0,2.4125-.1713,3.4325-.514,1.02-.3422,1.9384-.8342,2.7551-1.4757v-10.1659h-5.4873v-1.7267h10.3621v12.7452c-.8457.4517-1.6983.8526-2.5579,1.2023-.8596.3501-1.7889.6415-2.787.8745-.9991.2331-2.0957.4119-3.29.5359-1.1953.1235-2.5509.1858-4.067.1858-1.6027,0-3.1257-.1788-4.569-.5359-1.4423-.3566-2.78-.8636-4.0112-1.519-1.2321-.6559-2.3438-1.4393-3.3338-2.3502-.9921-.9109-1.8338-1.9204-2.525-3.0281-.6933-1.1076-1.2282-2.2954-1.6077-3.5634-.3785-1.268-.5678-2.5868-.5678-3.9569,0-1.3557.1783-2.6784.5349-3.9678.3576-1.2899.8716-2.5066,1.5419-3.6511.6704-1.144,1.4861-2.1899,2.4483-3.1371.9622-.9473,2.0479-1.7635,3.2571-2.4488,1.2102-.6848,2.529-1.2167,3.9574-1.5957s2.9434-.5683,4.5471-.5683c1.53,0,2.9474.2077,4.2522.623,1.3039.4154,2.4922.9657,3.5639,1.6505,1.0708.6853,2.022,1.4757,2.8527,2.3721.8307.896,1.5449,1.8328,2.1425,2.8089l-2.0987,1.3995c-1.2242-2.3467-2.5838-4.063-4.0779-5.1487-1.4941-1.0857-3.2103-1.6286-5.1477-1.6286Z" style="fill:#fff;"/><path d="M347.2438,35.174v13.9041h-4.8748v-28.9886h4.8748v13.2044h14.5606v-13.2044h4.8748v28.9886h-4.8748v-13.9041h-14.5606Z" style="fill:#fff;"/><path d="M400.0385,20.0895l-.0328,3.1281h-10.4936l.0328,25.8605h-4.8758l-.0328-25.8605h-10.4936l.0328-3.1281h25.863Z" style="fill:#fff;"/><path d="M211.9287,73.1611l13.6412,29.6445h-4.9624l-4.4156-9.6629h-12.4399l-4.569,9.6629h-2.4483l13.9699-29.6445h1.2242ZM204.6046,91.2627h10.6908l-5.2692-11.4777-5.4216,11.4777Z" style="fill:#fff;"/><path d="M250.9925,73.817v1.8801h-14.1442v10.3621h10.2316v1.8806h-10.2316v14.8658h-4.8758v-28.9886h19.02Z" style="fill:#fff;"/><path d="M308.2447,73.817v1.8801h-15.2817v10.3621h10.2316v1.8806h-10.2316v12.9858h15.2817v1.8801h-20.1565v-28.9886h20.1565Z" style="fill:#fff;"/><path d="M316.6595,73.817h10.0563c1.7342,0,3.2571.1858,4.569.5573,1.3118.3715,2.4045.893,3.2791,1.5628.8745.6709,1.5339,1.4687,1.9782,2.3941.4452.9258.6674,1.9349.6674,3.0281,0,.9039-.1713,1.7486-.514,2.536-.3426.7869-.8237,1.4976-1.4423,2.1316-.6206.634-1.3666,1.1803-2.2412,1.6395-.8745.4592-1.8368.8198-2.8856,1.0822l10.5593,14.057h-5.6627l-10.0782-13.6198h-3.4105v13.6198h-4.8748v-28.9886ZM321.5342,87.7212h2.8199c1.0937,0,2.1027-.1459,3.0281-.4373s1.7272-.7032,2.4055-1.2351c.6773-.5319,1.2052-1.1769,1.5847-1.9349.3785-.758.5678-1.6106.5678-2.5579,0-.8745-.1494-1.6759-.4482-2.405-.2988-.7286-.7212-1.3517-1.268-1.8691-.5458-.517-1.1943-.9214-1.9453-1.2132-.751-.2914-1.5708-.4373-2.4593-.4373h-4.2851v12.0898Z" style="fill:#fff;"/><path d="M205.1733,142.1484c0,2.026.3058,3.8443.9184,5.4545.6116,1.6106,1.4533,2.9733,2.525,4.0884,1.0708,1.1151,2.3348,1.9677,3.793,2.5579,1.4573.5902,3.038.8855,4.7433.8855,1.02,0,2.0041-.1967,2.9514-.5907.9473-.3934,1.8258-.9069,2.6346-1.5409.8088-.634,1.5339-1.3482,2.1754-2.1425.6415-.7944,1.1654-1.5992,1.5738-2.416l2.0549,1.3118c-.5976.9766-1.3039,1.913-2.1206,2.8094-.8158.8965-1.7591,1.6908-2.8308,2.3831-1.0708.6923-2.281,1.2426-3.6287,1.6505-1.3487.4079-2.8537.6121-4.5152.6121-2.4045,0-4.5869-.4009-6.5472-1.2028-1.9603-.8013-3.6396-1.8871-5.0391-3.2571-1.3995-1.3696-2.4812-2.9693-3.2462-4.7986-.766-1.8288-1.1485-3.7637-1.1485-5.8046,0-1.3552.1753-2.6779.5249-3.9678.3496-1.2899.8556-2.4991,1.519-3.6292.6634-1.129,1.4722-2.164,2.4274-3.1043.9542-.9403,2.033-1.7491,3.2352-2.4264,1.2023-.6778,2.5171-1.2028,3.9464-1.5743,1.4274-.3715,2.9514-.5573,4.569-.5573,1.5449,0,2.9693.2077,4.2741.623,1.3039.4154,2.4922.9657,3.5629,1.6505,1.0718.6853,2.026,1.4757,2.8637,2.3721.8387.896,1.5559,1.8328,2.1535,2.8089l-2.1206,1.3995c-1.2092-2.3467-2.5649-4.063-4.066-5.1487-1.5011-1.0857-3.2283-1.6286-5.1816-1.6286-1.6764,0-3.2432.3058-4.7005.9179-1.4573.6126-2.7292,1.4866-3.8149,2.6236-1.0857,1.137-1.9384,2.5181-2.5569,4.1427-.6206,1.6256-.9293,3.4579-.9293,5.4983Z" style="fill:#fff;"/><path d="M252.6988,157.2115c-2.2451,0-4.3399-.4009-6.2852-1.2028-1.9463-.8013-3.6367-1.898-5.072-3.29-1.4363-1.3915-2.5659-3.0171-3.3886-4.8753-.8237-1.8582-1.2351-3.8438-1.2351-5.9575,0-1.384.1853-2.7178.5568-4.0007.3725-1.2819.9004-2.4772,1.5857-3.5854.6843-1.1071,1.511-2.1166,2.4812-3.0276.9692-.9109,2.0439-1.6908,3.2243-2.3393s2.4553-1.151,3.8259-1.5085c1.3696-.3571,2.8059-.5354,4.307-.5354s2.9364.1783,4.307.5354c1.3696.3576,2.6486.8601,3.8359,1.5085,1.1883.6484,2.2631,1.4284,3.2253,2.3393s1.7889,1.9204,2.4812,3.0276c.6923,1.1081,1.2242,2.3034,1.5957,3.5854.3715,1.2829.5578,2.6167.5578,4.0007,0,1.3995-.1863,2.7516-.5578,4.0555-.3715,1.3049-.9034,2.525-1.5957,3.6621-.6923,1.1365-1.519,2.1719-2.4812,3.1043-.9622.9328-2.037,1.7347-3.2253,2.405-1.1873.6704-2.4663,1.1878-3.8359,1.5519-1.3706.3646-2.8059.5468-4.307.5468ZM252.6988,155.7687c1.6614,0,3.1297-.3461,4.4046-1.0384,1.276-.6923,2.3507-1.658,3.2253-2.8971.8745-1.2386,1.5339-2.7033,1.9782-4.3942.4442-1.6903.6664-3.5415.6664-5.5531,0-1.9961-.2221-3.8254-.6664-5.4869-.4442-1.6619-1.1036-3.0938-1.9782-4.2961-.8745-1.2023-1.9493-2.1351-3.2253-2.7985-1.275-.6629-2.7432-.9946-4.4046-.9946-1.6913,0-3.1735.3317-4.4494.9946-1.275.6634-2.3467,1.5962-3.2133,2.7985-.8676,1.2023-1.519,2.6341-1.9563,4.2961-.4373,1.6614-.6564,3.4907-.6564,5.4869,0,2.0116.2191,3.8628.6564,5.5531.4373,1.6908,1.0887,3.1555,1.9563,4.3942.8666,1.2391,1.9384,2.2048,3.2133,2.8971,1.276.6923,2.7581,1.0384,4.4494,1.0384Z" style="fill:#fff;"/><path d="M277.0089,152.5987c.3197,0,.6265.0623.9174.1858.2918.124.5468.2879.766.4916.2181.2047.3895.4482.513.7326.1245.2844.1863.5792.1863.8855,0,.3352-.0618.6415-.1863.9179-.1235.2774-.2948.5214-.513.7326-.2191.2112-.4741.375-.766.4921-.2909.116-.5976.1748-.9174.1748-.3357,0-.6494-.0588-.9403-.1748-.2918-.117-.5468-.2809-.765-.4921-.2191-.2112-.3905-.4552-.514-.7326-.1245-.2764-.1863-.5827-.1863-.9179,0-.3063.0618-.6011.1863-.8855.1235-.2844.2948-.5279.514-.7326.2181-.2037.4731-.3675.765-.4916.2909-.1235.6046-.1858.9403-.1858Z" style="fill:#fff;"/><path d="M282.041,73.817l-.0328,3.1281h-10.4936l.0328,25.8605h-4.8758l-.0328-25.8605h-10.4936l.0328-3.1281h25.863Z" style="fill:#fff;"/></g></g></svg>