<?xml version="1.0" encoding="UTF-8"?><svg id="Layer_2" xmlns="http://www.w3.org/2000/svg" viewBox="0 0 46.2673 46.9949"><g id="Components"><g id="ca399b84-239e-4553-b71a-f5efb47b4d3a_5"><path d="M34.9878,17.8689c0,5.4108-2.5103,10.2353-6.4298,13.3724-2.9292,2.3444-6.6454,3.7465-10.6891,3.7465C8.4144,34.9878.75,27.3234.75,17.8689S8.4144.75,17.8689.75s17.1189,7.6644,17.1189,17.1189Z" style="fill:none; stroke:#fff; stroke-linecap:round; stroke-linejoin:round; stroke-width:1.5px;"/><path d="M28.9928,31.4212l3.1449,3.3415.1504,1.3394c.037.3291.1885.6347.4282.8633l9.6571,9.2103c.4425.422,1.1372.4261,1.5846.0093l1.4416-1.3431c.4726-.4403.4923-1.1827.0437-1.6474l-9.1114-9.4387c-.1659-.1718-.3726-.2987-.6009-.3688l-.7431-.2281-.8527-.2617-3.3487-3.1563" style="fill:none; stroke:#fff; stroke-linecap:round; stroke-linejoin:round;"/><line x1="32.5985" y1="35.4676" x2="34.9878" y2="33.1588" style="fill:none; stroke:#fff; stroke-linecap:round; stroke-linejoin:round;"/><path d="M5.104,14.7033c-.0054.1481-.4717,3.1129-.4434,3.1407,1.398,1.3777,1.5871,3.0538,2.1224,4.7916.6828,1.7495,2.0719,3.2527,3.8127,3.9843,1.8065.5861,3.7245,1.2242,5.0859,2.6476,0-.0001,2.1548,1.9198,2.1548,1.9198.3642.3138-.1362.8949-.4995.5615-1.2801-1.4127-2.4387-3.0191-4.1523-3.9141-1.714-.784-3.7255-1.1909-5.041-2.6871-1.4736-1.3372-1.8478-3.3935-2.4804-5.1391-.2875-.6315-.7005-1.2003-1.2067-1.6708-.2537-.2017-.3243-.5165-.269-.8413,0,0,.1704-2.8691.1704-2.8691.0365-.5049.8136-.4348.7461.0762h0Z" style="fill:#fff;"/><path d="M27.8345,26.9504c-.0728-.4453-.1836-1.0142.124-1.4927.2847-.4458.689-.7622.9004-1.0835.2056-.3062.147-.7573.0908-1.2119-.1098-.8878-.2539-1.7967-.8442-2.4722-.6045-.6597-1.7623-1.0813-1.9423-2.1382-.1202-.519-.0806-1.017-.0284-1.4853.0137-.1318.1313-.2275.2632-.2144.1206.0127.2114.1147.2153.2324.0249.9487.0898,1.7827.8252,2.2788.3379.2754.7769.5391,1.1108.9526.6562.7801.8169,1.8299.9057,2.7847.0366.4551.1314,1.0215-.1972,1.5273-.3262.4512-.7007.6978-.9414,1.0376-.2466.3149-.1968.7788-.1436,1.2344.0321.2145-.3041.2675-.3384.0503h0Z" style="fill:#fff;"/><path d="M30.2905,12.8351c-.9013-.6178-1.5847-1.5325-1.9214-2.5718,0,0,.377.2588.377.2588-1.4585-.0223-3.1344-.081-4.333-1.0845-1.2033-.9614-1.2085-2.7539-2.0488-3.8764-.5591-.7295-1.4385-1.2085-2.3164-1.2285-.5454-.0202-.4372-.8706.1026-.7427,1.0561.2505,1.9712.8804,2.5332,1.748.5684.8755.708,1.8794,1.1245,2.729.825,1.8928,3.0969,2.0053,4.8975,1.7065.1621-.0224.313.0743.3647.2227.2809.8924.8707,1.692,1.6436,2.2202.4035.2664-.0248.9018-.4233.6187h0Z" style="fill:#fff;"/><path d="M24.2256,30.4499c-3.2147.4367-5.7569-2.1608-6.9936-4.8321-.4898-1.0001-1.2632-1.949-2.0659-2.6987-.9257-.7908-2.2001-.3017-3.3033-.7153-.6182-.2144-1.0171-.8042-1.2114-1.3579-.6608-3.4807-5.04-5.8285-3.568-9.7036.2264-.4955.9617-.0944.6554.3643-1.7811,3.3632,2.6637,6.0565,3.2063,9.2251.6179,2.109,3.1018.745,4.4436,1.9086.8817.7878,1.6744,1.7145,2.2241,2.7583,1.1842,2.4479,3.5959,4.8229,6.4927,4.311.4854-.094.6216.6707.1201.7403h0Z" style="fill:#fff;"/><path d="M5.5044,12.4631c-.2611-.8596.2241-1.6351.6938-2.2598,1.6681-2.3653,4.1844-4.2138,7.1212-4.5136,1.4815-.356,2.8123.6797,4.0917,1.1495.5947.2084,1.4365.1537,2.064.7435.6137.5097.6702,1.4162.6831,2.1231.0137.6636.3785,1.1826.9229,1.5771,1.6947,1.4112,3.9229,1.3202,5.8599,2.2259.6611.3346,1.288.9015,1.5951,1.6217.2852.7026.5083,1.251,1.0278,1.6436.4844.3955,1.1152.6099,1.7217.5859.2065-.0103.3823.1499.3921.3564.0109.2122-.1592.3915-.3711.3931-1.2094.0104-2.3572-.6676-2.9248-1.7222-.1875-.3501-.2895-.6997-.4199-1.0034-.4741-1.2197-1.8975-1.7202-3.2246-2.0049-1.9086-.4297-4.8873-1.3207-5.0817-3.6395-.018-.7379-.0253-1.38-.5097-1.8038-.4312-.4434-1.1538-.4243-1.8765-.6572-1.3391-.4826-2.4149-1.4543-3.8931-1.1191-2.7969.303-5.1553,2.1088-6.6454,4.4311-.3877.5444-.6973,1.1767-.5152,1.6352.1904.4826-.5719.7353-.7114.2373h0Z" style="fill:#fff;"/><path d="M12.6011,17.6008c-.6353-1.618-1.1382-3.4387-.7077-5.1626.1365-.4886.6236-.7057,1.0207-.9116.7459-.446,1.4887-.8374,2.2665-1.2262.3814-.1723,1.0186-.1831,1.2554.3648.0788.1886-.2298.2801-.2671.0801-.3647-.8354-1.5096-.0099-2.0688.269-1.705.6508-2.285,2.2695-1.8984,4.0211.1396.8251.433,1.622.8461,2.3408.1738.2925-.3134.5425-.4468.2246h0Z" style="fill:#fff;"/><path d="M13.4707,12.2912c1.0586.1514,2.1631-.4712,3.3936-.1348,1.2275.3525,1.5786,1.748,2.1054,2.6782.2701.4619.71.623,1.2701.6191,1.6849.0354,3.7013-.3122,4.9258,1.2647.1981.2633-.2227.5673-.4082.2895-1.2346-1.6951-3.6911-.7446-5.4424-1.2977-1.2984-.6989-1.0782-2.7535-2.5645-3.1954-1.0034-.3184-2.1284.2646-3.3251.1074-.2132-.0239-.1728-.3656.0454-.3311h0Z" style="fill:#fff;"/><path d="M23.3613,20.6384c-.0698-.4785-.0103-.9424-.0889-1.3003-.0771-.3599-.3784-.5649-.7915-.7578-.7827-.3906-1.6128-.6919-2.4688-.8916-.572-.0593-1.3221-.4479-1.815-.0616-.7258.6844-1.5168,1.7987-1.1431,2.8263.4107.7533,1.5983.7213,2.1108,1.5265.5855.6654,1.0035,1.5658,1.8326,1.7787,2.2207.3688,2.932-1.115,2.3638-3.1201h0ZM23.8428,20.5749c.5356,2.1726-.4325,3.9769-2.9156,3.4336-.9393-.2833-1.3138-1.2435-1.9003-1.9102-.5189-.8194-1.6426-.7249-2.1265-1.5717-.375-.9053.1623-1.8428.6753-2.5655.2847-.3584.643-.8414,1.1558-.7607,1.3613.0971,2.6866.436,3.9316.9961.3862.1504.9395.4634,1.0713,1.0171.1353.5142.0503.9565.1084,1.3613h0Z" style="fill:#fff;"/><path d="M21.8008,24.676c.1245.5156.7183.8711,1.2925.8696,1.2823-.004,1.9415-1.5771,1.6655-2.7139-.1201-.6221-.4072-1.2124-.7597-1.7559-.0842-.1235.1119-.2565.1953-.1313,1.2957,1.5366,1.4481,4.7629-1.0958,5.0347-.7226.0224-1.5356-.3746-1.7797-1.1685-.1037-.3201.4052-.462.4819-.1348h0Z" style="fill:#fff;"/></g></g></svg>