<?xml version="1.0" encoding="UTF-8"?><svg id="Layer_2" xmlns="http://www.w3.org/2000/svg" viewBox="0 0 60.2366 44.5175"><g id="Components"><g id="c17eb7b8-389a-46b1-a662-7efd69048c78_5"><polyline points="49.8601 29.4222 33.0933 .75 23.6521 18.5158 20.2004 13.8679 11.1618 30.0091" style="fill:none; stroke:#fff; stroke-linecap:round; stroke-linejoin:round; stroke-width:1.5px;"/><path d="M10.9342,29.5261c.6934-.2607.8867.0747,1.187.2876,1.1044.8289,2.2925,1.7812,3.5435,2.3155.5056.2045,1.0964-.0606,1.6606-.2182.5578-.2307,1.3633-.2056,1.9717-.0947.2883.0422,1.2686-.0119,1.581-.021.7801-.0608,1.6105.2924,2.3672.4991,1.1011.2956,2.0738.3122,3.1909.3334.5523.063.9001.0423,1.4746.4068,0,0-.418-.1469-.418-.1469,1.7172.0692,3.5836.0038,5.231.7769.2459.1269,1.2139.1242,1.9003-.0567,1.4528-.3758,3.1281-.0436,4.5489-.5595.3168-.1012.7745-.2998,1.1031-.3935,2.5804-.8803,5.4865-.2845,7.58-2.0513.5613-.4446.9993-1.0547,1.4316-1.6509.2397-.3311.7021-.4048,1.0327-.165.3433.2464.4083.7376.1406,1.0649-1.0134,1.3307-2.416,2.5081-4.0664,2.9506-2.2326.6081-4.2134.4036-6.2363,1.2213-1.3137.6095-2.7911.6587-4.1919.6854-1.246.1239-2.385.6948-3.7988.2017-1.3745-.6113-2.9976-.5181-4.7246-.5488l-.418-.147c-.0499-.0226-.504-.1014-.6787-.0976-1.5414.0322-3.1324-.1306-4.5772-.6529-.2734-.08-.541-.1074-.8662-.0981-.5017.0178-1.2012.0946-1.7686.0205-.437-.062-.8905-.1627-1.3379.0142-.5944.1915-1.2388.3606-1.9248.3584-1.8493-.3643-3.2173-1.7153-4.6817-2.7655-.2851-.2481-.6713-.3814-.5502-1.1197.0277-.1672.1447-.297.2944-.3486h0Z" style="fill:#fff;"/><path d="M47.5165,24.5587c7.4056,1.8935,12.2201,4.9645,12.2201,8.431,0,5.7529-13.2606,11.0278-29.6183,11.0278S.5,38.7426.5,32.9897c0-3.5956,5.1799-6.7657,13.0584-8.6376" style="fill:none; stroke:#fff; stroke-linecap:round; stroke-linejoin:round;"/><path d="M41.4001,16.1404c-.7977,1.4183-1.4207,2.9879-2.6439,4.1163-.1173.0798-.1542.1746-.2213.3417-.3395,1.1899-.2688,2.4695-.2691,3.7188-.0335.8523.0463,1.9493.8736,2.3931.4353.2151.0826.8986-.3458.6655-1.108-.6456-1.2751-1.9176-1.1762-3.0586.1054-1.4108-.0784-3.0263.6868-4.3003,1.2661-1.0222,1.9972-2.6264,2.84-4.0107.0848-.1602.3409-.0324.2558.1342h0Z" style="fill:#fff;"/><path d="M30.6447,22.4959c.1178,1.6258-.4348,3.6113-2.1153,4.2334-1.4535.6213-3.0149,1.3775-4.6435.9828-.6304.044-1.4683.377-1.7774.8116-.3301.4771-.9517.6675-1.4795.5342-.5469-.105-.9165-.5947-1.1211-.7495-1.1861-.8918-2.6746.5853-4.0142.8592-.6189.1952-.9289-.7507-.3032-.953.6857-.1903,1.4421-.54,2.208-.8218.8377-.3896,1.9735-.4284,2.6626.2427.5181.5197.886.9018,1.3921.4174.6424-.7646,1.4741-.9929,2.4076-1.0826.424-.0311.7526.1808,1.1665.1573,1.1202-.0696,2.2046-.5568,3.2637-.9638,1.418-.4673,1.9263-2.1651,1.8706-3.6275-.0424-.3169.4708-.3634.4829-.0405h0Z" style="fill:#fff;"/><path d="M41.8498,21.0623c1.5899.557,1.4492,2.4346,1.6664,3.7784.35.8619,1.4638,1.9387,2.3589,2.2779,1.1738.3196,2.6031.2254,3.6905.8787.536.3718-.0261,1.1957-.5689.8247-.7801-.5597-2.3915-.6844-3.3339-1.0498-.7546-.2871-1.267-.9329-1.7618-1.5126-.2861-.3989-.6523-.7661-.7524-1.3472-.1269-1.3973.2369-3.1373-1.2988-3.8501h0Z" style="fill:#fff;"/><path d="M11.4928,28.8924c-5.0098,1.6161-7.4152,4.5918-1.1142,6.9243,3.8743,1.5541,8.037,2.1555,12.1576,2.7437,2.7578.4238,5.5542.8081,8.3603.751,5.5957-.0752,11.2344-.7363,16.5493-2.3784,2.8456-.8041,9.9923-3.6534,5.1245-6.8205-1.1298-.724-2.4077-1.264-3.7192-1.704-.1143-.0366-.1772-.1597-.1406-.2739.0332-.1025.1382-.1636.2412-.1484,1.4087.2231,2.793.6636,4.0708,1.3809,1.3798.6368,2.6615,2.284,2.0521,3.9351-.5533,1.4806-2.0849,2.257-3.3929,2.9263-6.5225,2.8039-13.8028,2.9531-20.7852,3.0929-5.6194.1029-11.3072.117-16.7861-1.4057-3.2881-.7494-11.8813-3.6522-6.6743-7.7489.2136-.3411,5.0895-2.552,4.0566-1.2743h0Z" style="fill:#fff;"/></g></g></svg>