<?xml version="1.0" encoding="UTF-8"?>
<svg id="Layer_1" data-name="Layer 1" xmlns="http://www.w3.org/2000/svg" viewBox="0 0 1080 1080">
  <defs>
    <style>
      .cls-1 {
        fill: #c7bbab;
      }

      .cls-2 {
        fill: #c97e5a;
      }
    </style>
  </defs>
  <path class="cls-2" d="M544.35,711.36c-17.05,0-31.41-13.61-43.2-24.79-3.34-3.16-6.49-6.15-9.52-8.69-8.24-6.91-16.85-13.7-25.18-20.26-13.47-10.62-27.41-21.61-40.27-33.49-22.62-20.89-22.29-86.27-18.98-147.47,1.22-22.66,20.26-46.03,56.57-69.47,28.96-18.69,61.57-32.63,78.43-39.27,6.93-2.73,14.2-4.44,21.6-5.07h0c21.07-1.79,71.68-5.9,86.6-5.29,9.25.38,15.81,3.39,19.49,8.95,8.97,13.54-.52,38.72-10.56,65.38-7.53,19.98-15.31,40.64-12.92,52.66,3.18,15.99,10.37,45.6,22.77,64.28,14.98,22.56,1.35,46.48-10.67,67.57-3.94,6.91-7.65,13.43-10.08,19.42-8.35,20.67-30.85,38.81-48.25,50.38-20.44,13.6-40.78,22.79-49.54,24.54-2.14.42-4.24.62-6.29.62ZM564.22,367.78h0c-6.92.59-13.72,2.18-20.2,4.74-30.26,11.92-129.18,54.67-131.87,104.4-3.06,56.54-3.84,123.96,17.39,143.57,12.72,11.75,26.58,22.68,39.98,33.24,8.35,6.59,16.99,13.4,25.29,20.36,3.14,2.64,6.35,5.67,9.74,8.89,13.03,12.35,27.8,26.36,45.13,22.9,8.41-1.67,28.58-11.03,47.77-23.8,13.77-9.16,38.11-27.6,46.41-48.12,2.55-6.3,6.35-12.97,10.36-20.02,11.32-19.86,24.15-42.36,10.85-62.39-12.87-19.38-20.25-49.7-23.5-66.05-2.67-13.41,5.01-33.79,13.14-55.37,9.16-24.32,18.64-49.47,11.06-60.91-2.8-4.22-7.89-6.42-15.57-6.74-14.65-.6-65,3.49-85.98,5.28Z"/>
  <path class="cls-2" d="M542.82,641.9c-10.09,0-18.45-7.92-25.91-15-2.04-1.94-3.97-3.77-5.83-5.32-5.04-4.22-10.29-8.37-15.38-12.38-8.22-6.48-16.71-13.18-24.55-20.42-13.65-12.6-13.43-52.36-11.42-89.59.75-13.9,12.68-28.27,35.45-42.73,25.91-16.45,56.37-26.28,88.11-28.44,12.26-.83,20.44-1.18,24.33-1.02,5.47.22,9.33,1.98,11.48,5.23,5.33,8.04-.68,24-6.5,39.43-4.62,12.26-9.4,24.94-7.91,32.42,1.95,9.8,6.36,27.95,13.97,39.42,8.97,13.5.73,27.95-6.53,40.69-2.41,4.23-4.69,8.23-6.18,11.92-9.39,23.24-49.77,43.51-59.3,45.41-1.31.26-2.58.38-3.83.38ZM583.42,429.99h0c-31.41,2.14-61.56,11.87-87.18,28.14-22.2,14.1-33.82,27.95-34.53,41.17-1.87,34.62-2.34,75.92,10.78,88.04,7.78,7.19,16.25,13.86,24.43,20.32,5.09,4.02,10.36,8.17,15.42,12.41,1.91,1.6,3.86,3.45,5.92,5.4,8.04,7.63,17.16,16.26,28,14.11,9.31-1.85,48.71-21.6,57.86-44.21,1.54-3.81,3.85-7.87,6.3-12.16,6.98-12.25,14.89-26.13,6.6-38.62-7.8-11.75-12.29-30.18-14.27-40.12-1.6-8.04,3.06-20.41,8-33.51,5.64-14.97,11.47-30.44,6.7-37.64-1.8-2.73-5.05-4.15-9.91-4.34-3.8-.16-11.92.19-24.11,1.02Z"/>
  <path class="cls-2" d="M541.51,595.28c-6.03,0-11.01-4.72-15.1-8.6-1.13-1.07-2.19-2.08-3.2-2.93-2.79-2.34-5.71-4.64-8.53-6.87-4.59-3.62-9.33-7.36-13.72-11.41-7.88-7.28-7.78-29.66-6.65-50.6.43-7.92,7.01-16.05,19.56-24.14,14.72-9.49,32.19-15.16,50.53-16.39h0c2.79-.19,5.43-.25,7.76-.3,2.18-.05,4.07-.09,5.18-.23,5.01-.63,8,0,9.41,1.99,2.19,3.09-.23,7.94-3.57,14.65-4.03,8.07-9.04,18.12-6.37,26.86.86,2.81,2.23,5.73,3.56,8.54,2.33,4.93,4.52,9.6,4.36,14.08-.42,11.58-5.64,25.34-7.23,29.27-5.35,13.23-28.28,24.76-33.69,25.84-.78.15-1.54.23-2.28.23ZM564.59,477.31h0c-17.84,1.2-34.83,6.7-49.12,15.92-11.71,7.55-17.83,14.88-18.21,21.8-1.03,19.07-1.31,41.78,5.7,48.26,4.31,3.98,9,7.68,13.55,11.26,2.84,2.24,5.78,4.55,8.6,6.92,1.08.91,2.18,1.95,3.34,3.05,4.31,4.09,9.2,8.71,14.76,7.62,4.91-.98,26.64-11.98,31.52-24.04,3.19-7.88,6.7-19.45,7.02-28.27.14-3.76-1.91-8.11-4.08-12.71-1.37-2.91-2.79-5.93-3.71-8.94-3.01-9.87,2.29-20.5,6.55-29.05,2.45-4.9,4.97-9.97,3.81-11.62-.39-.55-1.76-1.37-6.62-.76-1.26.16-3.13.2-5.48.25-2.3.05-4.91.11-7.63.29Z"/>
  <path class="cls-1" d="M1082.27,282.4c-.95,0-5.45-4.01-12.35-11-10.09-10.23-17.72-43.83-23.85-70.83-2.71-11.94-5.05-22.25-7.15-28.55-6.65-19.95-17.83-24.52-59.05-33.94-41.82-9.56-56.53-57-66.26-88.4-10.94-35.3,8.51-60.64,8.71-60.89.19-.24.53-.28.76-.09.24.18.28.53.09.76-.19.25-19.3,25.16-8.53,59.9,9.66,31.16,24.25,78.24,65.46,87.66,39.5,9.03,52.86,13.71,59.84,34.65,2.12,6.35,4.46,16.69,7.18,28.66,6.1,26.87,13.68,60.3,23.56,70.31,9.54,9.67,11.51,10.62,11.69,10.69.25.05.43.27.43.53,0,.3-.24.54-.54.54Z"/>
  <path class="cls-1" d="M1085.93,154.95c-.33,0-.66-.14-.89-.42-14.51-17.42-33.17-25.81-52.91-34.69-14.82-6.66-30.14-13.55-44.01-24.64-13.16-10.53-13.1-31.33.18-60.17,9.89-21.49,23.78-40.17,23.92-40.35.38-.51,1.11-.62,1.63-.24.51.38.62,1.11.23,1.63-.55.73-54.32,73.46-24.5,97.31,13.64,10.91,28.82,17.74,43.51,24.34,20,8.99,38.89,17.48,53.75,35.32.41.49.34,1.23-.15,1.64-.22.18-.48.27-.74.27Z"/>
  <path class="cls-1" d="M1085.46,327.6c-.32,0-.64-.09-.92-.28-.25-.17-25.17-17.31-44.06-35.47-23.78-22.85-29.35-42.27-34.26-59.4-1.94-6.75-3.77-13.13-6.58-19.24-12.65-27.49-35.03-43.29-66.51-46.95-29.29-3.4-50.25-13.84-62.3-31.03-18.14-25.87-12.55-61.35-6.77-85.79,8.3-35.1.37-58.08.29-58.31-.3-.84.14-1.77.98-2.07.84-.3,1.77.14,2.07.98.35.96,8.35,24.04-.19,60.15-5.63,23.83-11.12,58.38,6.27,83.17,11.49,16.39,31.69,26.37,60.02,29.66,32.68,3.8,55.93,20.22,69.08,48.82,2.91,6.33,4.78,12.82,6.75,19.7,4.8,16.74,10.25,35.71,33.39,57.95,18.69,17.97,43.4,34.96,43.65,35.13.74.51.93,1.52.42,2.26-.32.46-.82.71-1.34.71Z"/>
  <path class="cls-1" d="M1079.73,441.47c-3,0-8.52-2.7-18.16-14.87-27.97-35.31-52.55-96.75-76.31-156.17l-1.49-3.72c-17.56-43.91-44.55-45.68-75.79-47.73-11.9-.78-24.21-1.59-36.94-4.72-19.54-4.81-34.57-16.26-44.68-34.04-18.9-33.25-17.35-83.4-12.72-119.61,5.01-39.19,14.6-70.95,14.7-71.27.08-.28.37-.43.65-.35.28.08.43.38.35.65-.38,1.26-37.99,126.85-2.07,190.05,9.96,17.52,24.77,28.8,44.01,33.54,12.64,3.11,24.9,3.91,36.76,4.69,31.59,2.07,58.88,3.86,76.69,48.38l1.49,3.72c23.74,59.35,48.28,120.72,76.16,155.91,10.23,12.92,15.42,14.61,17.58,14.47,1.35-.09,1.84-.88,1.86-.91.15-.25.47-.33.72-.19.25.14.34.46.2.71-.03.05-.74,1.29-2.64,1.44-.12,0-.24.01-.37.01Z"/>
  <path class="cls-1" d="M1084.51,550.49c-7.32,0-33.5-10.39-59.63-31.1-24.91-19.74-58.41-55.46-76.57-113.53-23.65-75.6-100.52-93.87-168.35-110-28.56-6.79-55.54-13.2-76.55-23.36-30.5-14.75-37.98-66.94-22.24-155.12,11.59-64.92,32.1-126.44,32.31-127.05.45-1.35,1.92-2.08,3.27-1.63,1.35.45,2.08,1.92,1.63,3.27-.2.61-20.61,61.82-32.13,126.37-15.06,84.39-8.34,136.08,19.42,149.51,20.5,9.91,47.21,16.26,75.49,22.99,69.17,16.44,147.56,35.07,172.09,113.48,33.92,108.44,122.78,141,131.27,141,1.43,0,2.58,1.16,2.58,2.58s-1.16,2.58-2.58,2.58Z"/>
  <path class="cls-1" d="M608.13,1080.36c-1.08,0-2.09-.68-2.45-1.76-.21-.61-20.73-62.16-32.32-127.11-15.75-88.22-8.26-140.43,22.25-155.19,21.01-10.16,48-16.58,76.58-23.37,67.85-16.13,144.76-34.41,168.42-110.04,9.94-31.78,31.61-52.67,64.4-62.1,63.99-18.41,153.67,13.51,181.17,37.03,1.08.93,1.21,2.56.28,3.65-.93,1.09-2.56,1.21-3.65.28-26.76-22.88-114.05-53.92-176.38-35.99-31.02,8.92-51.51,28.67-60.9,58.68-24.54,78.44-102.97,97.08-172.16,113.53-28.29,6.72-55.01,13.08-75.52,23-27.77,13.43-34.49,65.15-19.42,149.57,11.52,64.58,31.94,125.81,32.14,126.42.45,1.35-.28,2.82-1.63,3.27-.27.09-.55.14-.82.14Z"/>
  <path class="cls-1" d="M1081.25,481.56c-6.88,0-26.8-9.52-47.67-29.94-19.44-19.02-46.47-54.04-64.89-112.91-10.77-34.42-28.31-57.15-55.21-71.53-23.79-12.72-52.25-17.14-79.77-21.42-24.58-3.82-50-7.77-72.51-17.58-46.3-20.16,4.83-229.14,7.03-238.02.21-.84,1.06-1.35,1.9-1.15.84.21,1.36,1.06,1.15,1.9-.13.54-13.46,54.67-21.04,110.51-9.95,73.23-5.72,116.07,12.22,123.88,22.14,9.64,47.35,13.56,71.74,17.35,55.68,8.66,113.25,17.61,137.5,95.11,18.22,58.24,44.91,92.83,64.08,111.6,22.65,22.16,41.26,29.04,45.47,29.04.87,0,1.57.7,1.57,1.57s-.7,1.57-1.57,1.57Z"/>
  <path class="cls-1" d="M-2.72,199.97c-.51,0-.96-.36-1.06-.87-.12-.59.26-1.16.85-1.27.47-.09,47.95-9.63,96.51-27.51,44.62-16.42,99.32-43.42,106.49-78.74,9.03-44.51-8.78-66.48-19.42-79.6-5.78-7.13-9.96-12.29-6.52-17.28.34-.49,1.01-.62,1.5-.28.49.34.62,1.01.28,1.5-2.41,3.5.54,7.45,6.42,14.69,10.88,13.42,29.09,35.89,19.86,81.39-5.92,29.15-42.22,56.19-107.89,80.35C45.59,190.29-2.03,199.86-2.5,199.95c-.07.01-.14.02-.21.02Z"/>
  <path class="cls-1" d="M-2.63,160.75c-.48,0-.92-.29-1.09-.77-.22-.6.09-1.27.7-1.49.28-.1,27.84-10.17,53.59-27.86,23.58-16.2,50.43-42.31,44.46-74.66C83.65-5.59,63.77-3.46,63.56-3.42c-.63.09-1.22-.34-1.32-.97-.1-.63.32-1.22.95-1.33.9-.15,22.26-2.95,34.12,61.26,4.91,26.59-10.81,53.22-45.46,77.02-26,17.86-53.81,28.01-54.08,28.11-.13.05-.26.07-.4.07Z"/>
  <path class="cls-1" d="M-2.75,283.93c-.49,0-.93-.35-1.03-.85-.11-.57.26-1.12.83-1.23,2.15-.42,215.37-42.83,281.06-80.07,28.14-15.95,44.21-34.78,47.77-55.96,6.31-37.52-26.87-75.24-48.83-100.2-4.74-5.39-8.83-10.04-11.99-14.06-6.24-7.95-8.12-15.01-5.58-20.99,5.72-13.45,31.71-16.23,32.82-16.35.57-.06,1.09.36,1.15.94.06.58-.36,1.09-.94,1.15-.26.03-25.86,2.77-31.1,15.08-2.22,5.22-.44,11.56,5.3,18.87,3.12,3.98,7.19,8.61,11.91,13.97,22.22,25.26,55.8,63.43,49.32,101.93-3.67,21.83-20.1,41.16-48.81,57.44C213.16,241.01-.4,283.48-2.55,283.91c-.07.01-.14.02-.2.02Z"/>
  <path class="cls-1" d="M57.03,377.3c-14.63,0-29.19-1.91-43.49-5.73l-12.69-3.39c-1.35-.36-2.16-1.75-1.8-3.1.36-1.35,1.75-2.16,3.1-1.8l12.69,3.39c21.09,5.63,42.74,6.99,64.37,4.05,50.28-6.84,113.13-37.37,173.92-66.9,39.49-19.18,80.32-39.02,117.23-52.09,31.6-11.19,53.79-31.3,65.95-59.77,9.53-22.3,17.84-62.3,3.33-126.24-8.72-38.44-21.75-67.63-21.88-67.92-.57-1.28,0-2.78,1.27-3.35,1.28-.57,2.78,0,3.35,1.27.13.29,13.34,29.86,22.18,68.77,14.84,65.32,6.24,106.45-3.59,129.45-12.74,29.83-35.93,50.88-68.93,62.57-36.64,12.98-77.35,32.75-116.71,51.87-61.14,29.7-124.37,60.41-175.45,67.36-7.63,1.04-15.26,1.56-22.87,1.56Z"/>
  <path class="cls-1" d="M2.93,447.92c-1.94,0-3.38-.34-4.51-1.07-1.17-.76-1.95-1.93-2.17-3.3-.28-1.65.84-3.22,2.5-3.49,1.4-.23,2.72.53,3.27,1.76,2.85.57,13.21-2.2,23.24-4.89,30.86-8.26,82.51-22.08,135.93-10.23,32.52,7.22,76.03-1.85,122.51-25.51,45.08-22.96,90.44-58.13,127.71-99.02,23.97-26.31,59.27-42.02,90.42-55.88,28.34-12.61,55.11-24.52,69.47-42.23,17.22-21.23,25.58-45.09,24.85-70.92-.59-20.8-7.03-42.96-19.14-65.87C556.22,27.95,525.6-.22,525.29-.5c-1.24-1.13-1.33-3.05-.2-4.29,1.13-1.24,3.05-1.33,4.29-.2.31.29,31.62,29.07,52.9,69.29,12.57,23.76,19.27,46.84,19.91,68.59.8,27.35-8.02,52.58-26.2,75-15.28,18.83-42.69,31.03-71.72,43.95-32.1,14.28-65.28,29.05-88.4,54.42-37.75,41.43-83.72,77.06-129.44,100.35-48.42,24.66-92.19,33.66-126.58,26.03-51.96-11.53-102.72,2.05-133.04,10.17-12.19,3.26-19.38,5.12-23.89,5.12Z"/>
  <path class="cls-1" d="M411.98,1086.62c-21.82,0-57.77-1.47-94.14-9.34-34.03-7.36-61.79-18.8-82.49-33.99-25.97-19.07-40.85-44.11-44.23-74.45-1.98-17.79-3.69-35.93-5.34-53.47-4.82-51.23-9.38-99.61-20.03-136.31-11.87-40.91-29.54-61.08-55.62-63.49-11.08-1.03-22.29,2.33-31.53,9.45-30,23.11-66.96,49.81-77.49,49.82-.58,0-1.08-.08-1.49-.25-.53-.22-.79-.82-.58-1.36.22-.53.82-.79,1.36-.58,5.24,2.11,34.72-16.78,76.93-49.29,9.67-7.44,21.39-10.95,33-9.88,27.04,2.5,45.29,23.15,57.43,64.99,10.7,36.89,15.27,85.37,20.1,136.7,1.65,17.53,3.36,35.67,5.34,53.44,3.31,29.72,17.9,54.28,43.37,72.98,20.46,15.02,47.93,26.34,81.67,33.64,57.56,12.46,114.09,8.81,114.66,8.77.56-.02,1.07.4,1.11.97.04.58-.4,1.07-.97,1.11-.21.01-8.18.53-21.06.53Z"/>
  <path class="cls-1" d="M185.43,1081.56c-.06,0-.11,0-.17-.03-48.69-16.12-74.05-104.75-54.26-189.67,12.95-55.6-3.9-79.72-15.1-89.15-12.49-10.52-29.73-13.05-44.99-6.6C33.76,811.82.12,833.3-.22,833.51c-.25.16-.58.09-.74-.16-.16-.25-.09-.58.16-.74.34-.22,34.05-21.74,71.29-37.48,15.63-6.61,33.29-4.01,46.09,6.77,11.38,9.59,28.53,34.06,15.45,90.21-9.44,40.5-8.86,84.41,1.59,120.48,10.33,35.66,29.27,60.43,51.96,67.94.28.09.43.39.34.67-.07.22-.28.37-.51.37Z"/>
  <path class="cls-1" d="M93.85,1081.56c-.23,0-.44-.14-.53-.36-2.49-6.29-2.73-12.9-3.3-28.89-.35-9.63-.83-22.83-2.01-41.4-4.1-64.37-12.72-97.19-27.96-106.42-10.26-6.21-23.39-1.27-35.97,4.33-19.5,8.68-23.34,10.47-24.06,10.83-.05.05-.11.09-.18.11-.29.11-.68,0-.8-.29s-.17-.42.38-.75h0s.03-.02.04-.02c.53-.31,1.58-.79,3.56-1.69,4.03-1.83,10.96-4.94,20.6-9.23,12.85-5.72,26.29-10.76,37.01-4.27,15.59,9.44,24.38,42.53,28.51,107.31,1.18,18.59,1.66,31.79,2.01,41.44.57,15.85.81,22.41,3.23,28.51.12.29-.03.62-.32.74-.07.03-.14.04-.21.04Z"/>
  <path class="cls-1" d="M662.54,1080.36c-.27,0-.55-.05-.82-.17-11.96-5.13-19.14-33.15-26.03-63.88-1.61-7.19-3.01-13.4-4.21-17.35-8.51-27.92-10.76-51.82-6.7-71.03,7.75-36.64,47.05-37.44,81.72-38.15,12.43-.26,24.18-.5,33.62-2.37,47.55-9.42,59.36-39.19,74.3-76.89,1.89-4.76,3.84-9.68,5.9-14.65,19.23-46.26,62.2-87.08,114.85-74.04,17.34,4.3,35.21,15.43,54.14,27.21,31.71,19.74,64.5,40.16,94.85,26.66,1.05-.47,2.28,0,2.75,1.06.47,1.05,0,2.28-1.06,2.75-32.36,14.39-66.11-6.62-98.74-26.93-18.64-11.6-36.24-22.56-52.94-26.7-50.26-12.46-91.46,26.99-110,71.6-2.05,4.93-4,9.84-5.88,14.58-14.8,37.34-27.59,69.59-77.37,79.45-9.8,1.94-21.72,2.19-34.34,2.44-33.12.68-70.67,1.45-77.73,34.85-3.91,18.51-1.69,41.71,6.61,68.95,1.25,4.1,2.66,10.38,4.29,17.65,4.72,21.04,12.62,56.25,23.61,60.97,1.06.45,1.55,1.68,1.09,2.74-.34.79-1.11,1.26-1.92,1.26Z"/>
  <path class="cls-1" d="M719.56,1080.36c-.64,0-1.25-.37-1.52-1-12.22-28.23-24.11-60.65-10.46-88.11,9.52-19.14,30.52-32.86,62.42-40.78,5.73-1.42,11.63-2.69,17.34-3.92,18.6-4,37.84-8.15,54-18.19,14.2-8.82,25.63-22.15,32.19-37.53,5.17-12.12,20.68-26.42,47.35-26.79,14.17-.18,28.14,3.3,41.63,6.68,4.38,1.1,8.92,2.24,13.37,3.22,36.64,8.12,73.36,7.78,109.15-1.01.89-.22,1.79.33,2,1.21.22.89-.33,1.79-1.21,2-36.28,8.91-73.51,9.25-110.66,1.03-4.5-1-9.06-2.14-13.46-3.25-13.29-3.33-27.05-6.79-40.78-6.58-25.08.36-39.57,13.57-44.35,24.78-6.83,16-18.72,29.86-33.49,39.04-16.65,10.35-36.18,14.55-55.06,18.61-5.68,1.22-11.56,2.49-17.24,3.9-30.92,7.67-51.19,20.81-60.25,39.04-13.02,26.19-1.39,57.77,10.53,85.32.36.84-.02,1.82-.86,2.18-.21.09-.44.14-.66.14Z"/>
  <path class="cls-1" d="M793.65,1080.48c-.63,0-1.16-.5-1.18-1.14-.39-10.94,3.78-21.67,12.05-31.02,7.57-8.55,17.91-15.13,29.12-18.53,22.38-6.79,46.46-3.26,67.71-.15,21.09,3.09,45,6.59,66.71.19,20.49-6.04,37.72-20.38,54.38-34.25,19.03-15.85,38.72-32.23,63.27-36.13.66-.11,1.25.34,1.35.98.1.64-.34,1.25-.98,1.35-23.91,3.8-43.34,19.97-62.13,35.62-16.85,14.02-34.26,28.52-55.23,34.7-22.21,6.55-46.39,3.01-67.72-.12-21-3.08-44.81-6.56-66.69.08-26.75,8.12-40.12,29.89-39.5,47.21.02.65-.48,1.2-1.14,1.22-.01,0-.03,0-.04,0Z"/>
  <path class="cls-1" d="M491.14,1091.42c-.3,0-.6-.05-.89-.16-49.21-17.91-96.81-36.35-138.1-64.9-47.01-32.5-79.41-75.22-91.24-120.28-4.96-18.91-6.87-39.51-5.84-63,.42-9.5,1.31-19.12,2.18-28.42,1.6-17.2,3.25-34.99,1.9-52.37-2.58-33.02-16.14-64.82-38.18-89.54-11.43-12.82-30.24-29.19-54.91-34.33-21.19-4.42-43.15.12-62.07,4.73-34.54,8.41-68.66,19.68-101.41,33.48-1.32.56-2.85-.06-3.4-1.39-.56-1.32.06-2.85,1.38-3.4,33.01-13.91,67.4-25.27,102.2-33.74,19.47-4.74,42.11-9.41,64.36-4.77,26.06,5.44,45.77,22.56,57.73,35.96,22.79,25.57,36.82,58.45,39.48,92.6,1.39,17.82-.28,35.84-1.9,53.26-.86,9.24-1.75,18.79-2.16,28.17-1.01,22.95.84,43.05,5.67,61.45,11.52,43.87,43.19,85.54,89.17,117.33,40.79,28.2,88.04,46.5,136.92,64.29,1.35.49,2.04,1.98,1.55,3.33-.38,1.06-1.38,1.71-2.44,1.71Z"/>
  <path class="cls-1" d="M558.17,1081.56c-.48,0-.97-.13-1.4-.41-41.57-26.58-82.01-55.9-120.2-87.12-18.59-15.2-42.49-35.74-62.48-59.81-20.49-24.68-33.69-49.13-40.37-74.75-9.55-36.65-5.23-75.13-1.06-112.35.72-6.41,1.46-13.05,2.12-19.54,4.19-41.4,5.24-88.77-18.73-126.12-18.34-28.58-50.86-49.44-91.57-58.72-36.4-8.3-73.92-6.89-112.37-4.55l-2.08.13c-20.81,1.27-42.32,2.59-63.07-1.87-24.47-5.26-44.06-18.49-53.74-36.32-.69-1.26-.22-2.85,1.05-3.53,1.27-.69,2.85-.22,3.53,1.05,8.95,16.49,27.27,28.77,50.25,33.71,20.05,4.31,41.2,3.01,61.66,1.76l2.08-.13c38.83-2.36,76.76-3.78,113.84,4.67,42.05,9.59,75.72,31.25,94.8,60.99,24.83,38.7,23.81,87.16,19.53,129.46-.66,6.52-1.41,13.16-2.13,19.59-4.13,36.75-8.39,74.75.92,110.46,14.35,55.06,59.17,97.54,101.11,131.84,38.03,31.1,78.31,60.29,119.71,86.77,1.21.78,1.57,2.39.79,3.6-.5.78-1.34,1.2-2.2,1.2Z"/>
  <g>
    <g>
      <path class="cls-1" d="M676.44,498.13c.48,0,.95-.07,1.41-.2.47-.13.89-.33,1.25-.58.37-.26.67-.57.89-.95.22-.37.33-.81.33-1.31,0-.59-.15-1.12-.46-1.58-.31-.46-.71-.88-1.2-1.27-.5-.38-1.06-.75-1.7-1.09-.64-.34-1.29-.68-1.95-1.02-.66-.34-1.31-.7-1.95-1.07s-1.2-.79-1.7-1.25c-.5-.46-.9-.98-1.2-1.55-.31-.57-.46-1.22-.46-1.96s.14-1.42.42-2.06c.28-.63.68-1.18,1.22-1.64.54-.46,1.19-.82,1.98-1.09s1.68-.39,2.69-.39c.91,0,1.73.1,2.45.29.72.19,1.35.48,1.9.86s1.01.85,1.39,1.4c.38.55.69,1.2.92,1.93l-1.66.76c-.19-.59-.44-1.14-.74-1.63s-.66-.91-1.08-1.26c-.42-.35-.9-.62-1.45-.81-.55-.19-1.17-.28-1.86-.28-.61,0-1.15.09-1.61.26-.46.17-.84.39-1.14.67-.31.28-.54.59-.69.93s-.23.7-.23,1.06c0,.51.16.97.47,1.39.31.42.72.82,1.24,1.2.52.37,1.1.74,1.76,1.09.66.35,1.33.71,2.01,1.06.68.36,1.35.73,2.01,1.12.66.39,1.24.81,1.76,1.28.52.46.93.97,1.24,1.52.31.55.47,1.16.47,1.85,0,.77-.15,1.49-.44,2.17-.29.68-.73,1.26-1.31,1.77s-1.31.9-2.17,1.19c-.87.29-1.87.44-3.02.44-.93,0-1.77-.1-2.49-.31-.73-.2-1.37-.5-1.93-.89-.56-.39-1.04-.86-1.44-1.42s-.72-1.2-.98-1.92l1.74-.71c.2.63.48,1.2.82,1.69.35.5.75.92,1.2,1.26s.97.61,1.52.79c.56.18,1.15.28,1.79.28Z"/>
      <path class="cls-1" d="M699.27,499.36c-1.5,0-2.9-.27-4.19-.8-1.3-.53-2.43-1.27-3.38-2.2s-1.71-2.01-2.26-3.25c-.55-1.24-.83-2.56-.83-3.98,0-.92.12-1.81.37-2.67.25-.86.6-1.65,1.06-2.39.46-.74,1.01-1.41,1.66-2.02.65-.61,1.36-1.13,2.15-1.56.79-.43,1.64-.77,2.55-1.01.91-.24,1.87-.36,2.87-.36s1.96.12,2.87.36c.91.24,1.77.57,2.56,1.01s1.51.95,2.15,1.56c.64.61,1.19,1.28,1.66,2.02.46.74.82,1.54,1.06,2.39.25.86.37,1.75.37,2.67s-.12,1.84-.37,2.71-.6,1.68-1.06,2.44c-.46.76-1.01,1.45-1.66,2.07-.64.62-1.36,1.16-2.15,1.6-.79.45-1.65.79-2.56,1.04-.91.24-1.87.36-2.87.36ZM699.27,498.39c1.11,0,2.09-.23,2.94-.69.85-.46,1.57-1.11,2.15-1.93.58-.83,1.02-1.8,1.32-2.93.3-1.13.45-2.36.45-3.71s-.15-2.55-.45-3.66-.74-2.06-1.32-2.87c-.58-.8-1.3-1.42-2.15-1.87-.85-.44-1.83-.66-2.94-.66s-2.12.22-2.97.66c-.85.44-1.57,1.07-2.14,1.87-.58.8-1.01,1.76-1.31,2.87s-.44,2.33-.44,3.66.15,2.58.44,3.71c.29,1.13.73,2.11,1.31,2.93.58.83,1.29,1.47,2.14,1.93.85.46,1.84.69,2.97.69Z"/>
      <path class="cls-1" d="M715.83,479.56h3.25v12.56c0,1.39.45,2.69,1.27,3.8.51.69,1.17,1.27,1.94,1.63,1.01.47,2.18.55,3.26.28,1.75-.45,3.17-1.74,3.82-3.43.28-.72.42-1.5.42-2.33v-12.56l2.75.03v12.56c0,.99-.16,1.93-.48,2.8-.32.88-.82,1.64-1.51,2.3-.69.66-1.56,1.18-2.63,1.56-1.07.38-2.35.58-3.85.58-1.33,0-2.51-.19-3.54-.58-1.03-.38-1.89-.91-2.58-1.57-.7-.66-1.22-1.44-1.58-2.33-.36-.89-.53-1.84-.53-2.85v-12.47Z"/>
      <path class="cls-1" d="M750.27,480.51c-1.17,0-2.24.21-3.23.62-.99.41-1.84,1.01-2.55,1.78-.71.77-1.27,1.71-1.67,2.8-.4,1.09-.6,2.32-.6,3.67s.22,2.59.65,3.68c.43,1.09,1.03,2.03,1.78,2.79.75.77,1.64,1.36,2.66,1.77,1.02.41,2.12.62,3.28.62.85,0,1.61-.11,2.29-.34s1.29-.56,1.84-.98v-6.78h-3.66v-1.15h6.91v8.51c-.56.3-1.13.57-1.71.8s-1.19.43-1.86.58-1.4.27-2.2.36c-.8.08-1.7.12-2.71.12-1.07,0-2.09-.12-3.05-.36-.96-.24-1.86-.58-2.68-1.01-.82-.44-1.56-.96-2.22-1.57-.66-.61-1.22-1.28-1.69-2.02-.46-.74-.82-1.53-1.07-2.38-.25-.85-.38-1.73-.38-2.64s.12-1.79.36-2.65c.24-.86.58-1.67,1.03-2.44.45-.76.99-1.46,1.63-2.09.64-.63,1.37-1.18,2.17-1.63.81-.46,1.69-.81,2.64-1.06.95-.25,1.96-.38,3.03-.38s1.97.14,2.84.42c.87.28,1.66.64,2.38,1.1.71.46,1.35.98,1.9,1.58.55.6,1.03,1.22,1.43,1.87l-1.4.93c-.82-1.57-1.72-2.71-2.72-3.44s-2.14-1.09-3.44-1.09Z"/>
      <path class="cls-1" d="M767.98,489.63v9.28h-3.25v-19.35h3.25v8.81h9.72v-8.81h3.25v19.35h-3.25v-9.28h-9.72Z"/>
      <path class="cls-1" d="M803.21,479.56v2.1s-6.99,0-6.99,0v17.25h-3.26v-17.25s-6.99,0-6.99,0v-2.1s17.25,0,17.25,0Z"/>
      <path class="cls-1" d="M820.09,479.12l9.1,19.78h-3.31l-2.95-6.45h-8.3l-3.05,6.45h-1.63l9.32-19.78h.82ZM815.2,491.2h7.13l-3.52-7.66-3.62,7.66Z"/>
      <path class="cls-1" d="M846.16,479.56v1.25h-9.44v6.92h6.83v1.25h-6.83v9.92h-3.25v-19.35h12.69Z"/>
      <path class="cls-1" d="M884.36,479.56v1.25h-10.2v6.92h6.83v1.25h-6.83v8.67h10.2v1.25h-13.45v-19.35h13.45Z"/>
      <path class="cls-1" d="M889.98,479.56h6.71c1.16,0,2.17.12,3.05.37.88.25,1.61.6,2.19,1.04.58.45,1.02.98,1.32,1.6.3.62.44,1.29.44,2.02,0,.6-.11,1.17-.34,1.69-.23.53-.55,1-.96,1.42-.41.42-.91.79-1.5,1.09-.58.31-1.23.55-1.93.72l7.05,9.38h-3.78l-6.73-9.09h-2.28v9.09h-3.25v-19.35ZM893.23,488.84h1.88c.73,0,1.4-.1,2.02-.29.62-.19,1.15-.47,1.6-.82.45-.36.81-.79,1.06-1.29.25-.51.38-1.07.38-1.71,0-.58-.1-1.12-.3-1.6-.2-.49-.48-.9-.85-1.25-.36-.34-.8-.61-1.3-.81-.5-.19-1.05-.29-1.64-.29h-2.86v8.07Z"/>
      <path class="cls-1" d="M917.84,489.3c0,1.35.2,2.57.61,3.64.41,1.07.97,1.98,1.69,2.73.71.74,1.56,1.31,2.53,1.71.97.39,2.03.59,3.17.59.68,0,1.34-.13,1.97-.39.63-.26,1.22-.61,1.76-1.03.54-.42,1.02-.9,1.45-1.43.43-.53.78-1.07,1.05-1.61l1.37.88c-.4.65-.87,1.28-1.41,1.87-.54.6-1.17,1.13-1.89,1.59-.71.46-1.52.83-2.42,1.1s-1.9.41-3.01.41c-1.6,0-3.06-.27-4.37-.8-1.31-.53-2.43-1.26-3.36-2.17-.93-.91-1.66-1.98-2.17-3.2-.51-1.22-.77-2.51-.77-3.87,0-.9.12-1.79.35-2.65.23-.86.57-1.67,1.01-2.42.44-.75.98-1.44,1.62-2.07.64-.63,1.36-1.17,2.16-1.62.8-.45,1.68-.8,2.63-1.05.95-.25,1.97-.37,3.05-.37s1.98.14,2.85.42c.87.28,1.66.64,2.38,1.1.71.46,1.35.98,1.91,1.58.56.6,1.04,1.22,1.44,1.87l-1.41.93c-.81-1.57-1.71-2.71-2.71-3.44s-2.15-1.09-3.46-1.09c-1.12,0-2.16.2-3.14.61-.97.41-1.82.99-2.55,1.75-.73.76-1.29,1.68-1.71,2.76-.41,1.08-.62,2.31-.62,3.67Z"/>
      <path class="cls-1" d="M949.56,499.36c-1.5,0-2.9-.27-4.19-.8-1.3-.53-2.43-1.27-3.38-2.2-.96-.93-1.71-2.01-2.26-3.25-.55-1.24-.83-2.56-.83-3.98,0-.92.12-1.81.37-2.67.25-.86.6-1.65,1.06-2.39.46-.74,1.01-1.41,1.66-2.02.65-.61,1.36-1.13,2.15-1.56.79-.43,1.64-.77,2.55-1.01.91-.24,1.87-.36,2.87-.36s1.96.12,2.87.36c.91.24,1.77.57,2.56,1.01.79.43,1.51.95,2.15,1.56.64.61,1.19,1.28,1.66,2.02.46.74.82,1.54,1.06,2.39.25.86.37,1.75.37,2.67s-.12,1.84-.37,2.71-.6,1.68-1.06,2.44c-.46.76-1.01,1.45-1.66,2.07-.64.62-1.36,1.16-2.15,1.6-.79.45-1.65.79-2.56,1.04-.91.24-1.87.36-2.87.36ZM949.56,498.39c1.11,0,2.09-.23,2.94-.69.85-.46,1.57-1.11,2.15-1.93.58-.83,1.02-1.8,1.32-2.93.3-1.13.45-2.36.45-3.71s-.15-2.55-.45-3.66-.74-2.06-1.32-2.87c-.58-.8-1.3-1.42-2.15-1.87-.85-.44-1.83-.66-2.94-.66s-2.12.22-2.97.66c-.85.44-1.57,1.07-2.14,1.87-.58.8-1.01,1.76-1.31,2.87s-.44,2.33-.44,3.66.15,2.58.44,3.71c.29,1.13.73,2.11,1.31,2.93.58.83,1.29,1.47,2.14,1.93.85.46,1.84.69,2.97.69Z"/>
      <path class="cls-1" d="M965.78,496.28c.21,0,.42.04.61.12.19.08.36.19.51.33.15.14.26.3.34.49.08.19.12.39.12.59,0,.22-.04.43-.12.61-.08.18-.2.35-.34.49-.15.14-.32.25-.51.33-.19.08-.4.12-.61.12-.22,0-.43-.04-.63-.12-.19-.08-.36-.19-.51-.33-.15-.14-.26-.3-.34-.49-.08-.18-.12-.39-.12-.61,0-.2.04-.4.12-.59.08-.19.2-.35.34-.49.15-.14.32-.25.51-.33.19-.08.4-.12.63-.12Z"/>
    </g>
    <path class="cls-1" d="M867.1,479.34v2.1s-6.99,0-6.99,0v17.25h-3.26v-17.25s-6.99,0-6.99,0v-2.1s17.25,0,17.25,0Z"/>
  </g>
</svg>