<?xml version="1.0" encoding="UTF-8"?><svg id="Layer_2" xmlns="http://www.w3.org/2000/svg" viewBox="0 0 50.9575 45.6257"><g id="Components"><g id="d3a531f5-d418-4fde-8e62-6c3c6ddc9065_1"><rect x=".75" y=".75" width="49.4575" height="44.1257" rx="3.0103" ry="3.0103" style="fill:none; stroke:#c7bbab; stroke-linecap:round; stroke-linejoin:round; stroke-width:1.5px;"/><circle cx="5.9997" cy="5.542" r="1.2293" style="fill:none; stroke:#c7bbab; stroke-linecap:round; stroke-linejoin:round;"/><circle cx="11.1173" cy="5.4844" r="1.2293" style="fill:none; stroke:#c7bbab; stroke-linecap:round; stroke-linejoin:round;"/><circle cx="15.9801" cy="5.542" r="1.2293" style="fill:none; stroke:#c7bbab; stroke-linecap:round; stroke-linejoin:round;"/><line x1="1.246" y1="10.325" x2="49.7116" y2="10.325" style="fill:none; stroke:#c7bbab; stroke-linecap:round; stroke-linejoin:round; stroke-width:1.5px;"/><path d="M1.254,29.1908c2.1441,1.2761,4.6414,2.2101,7.1772,1.9707.6304-.0332,1.3438.0005,1.9058.4111.5508.3882.9419.9194,1.458,1.1997,1.0498.5908,2.3169.5176,3.5718.5195,1.2825.2283,2.6461.2295,3.8159.9052,3.6104,2.1997,1.4564,7.6033,4.4696,10.109.3826.2785-.0516.8902-.4433.6049-3.4547-2.507-1.1496-7.7522-4.2557-10.3716-1.0242-.7919-2.3694-.7495-3.5787-.5116-1.2554.0302-2.6982-.0465-3.833-.8722-.5728-.4072-.8887-.9956-1.3594-1.376-.4629-.3994-1.1187-.46-1.7417-.4214-2.5866.296-5.1279-.5851-7.5239-1.498-.4867-.199-.1312-.9502.3374-.6695h0Z" style="fill:#c7bbab;"/><path d="M1.3121,36.7015c1.7611.5599,3.6994.7455,5.5542.8994.3521.0391.8076.0015,1.1963.29.355.2705.5366.5981.8247.7573.2842.1768.6343.2554.9951.2896,1.438.0479,3.1743.0078,4.4453,1.0718,1.4579,1.0214.9923,2.8803,1.2918,4.3067.0699.2315-.2932.3448-.3612.1059-.2261-.79-.1113-1.5747-.1929-2.2954-.1041-1.52-1.5578-2.4521-2.9653-2.6494-1.0973-.2384-2.3711.1155-3.4243-.4863-.3799-.2246-.5937-.5913-.852-.772-.3656-.2805-1.6045-.2164-2.1265-.3057-.4086-.0041-5.9749-.6834-4.3853-1.2119h0Z" style="fill:#c7bbab;"/><path d="M1.442,18.4667c.5782,1.5304,1.6459,3.0953,2.9062,4.169,1.2901.9682,3.1264,1.6504,4.7598,1.6691,1.7542-.0692,3.5282-.4211,5.2872-.5549.9342-.0929,1.8114.5142,2.5952.8683,2.3612.848,5.3041.406,7.249-1.2319,1.1908-1.0992,2.7375-2.3305,3.0958-3.962.0836-.828.1091-1.902.5835-2.6685,1.0257-1.9726,2.8762-3.3848,3.9292-5.2783.1425-.3087.0307-.8008.3871-1.3702.1055-.1856.3475-.2489.5288-.1343.1963.1212.2364.3987.082.5698-.1645.1851-.1294.6616-.311,1.1797-.5957,1.2841-1.7045,2.1255-2.5165,3.2349-1.2606,1.3437-2.0804,2.7036-2.0746,4.5791-.1843.9746-.7722,1.7665-1.3776,2.433-1.2557,1.3056-2.5623,2.6874-4.3716,3.209-2.1871.6315-4.6569.6111-6.6128-.6569-1.1954-.5271-2.5194-.029-3.7935.0601-.6625.1049-2.0146.2475-2.686.2818-2.7586-.0254-5.4717-1.449-6.9995-3.7671-.5318-.7378-1.0347-1.4863-1.3741-2.3989-.0723-.1943.0269-.4102.2207-.4824.2053-.0768.4337.041.4927.2515h0Z" style="fill:#c7bbab;"/><path d="M6.7286,11.0423c-.1722,2.1098-.3327,4.3874.7031,6.2886,1.0452.7881,3.0775.7471,4.3633.463,1.2238-.2505,2.5419-.739,3.7539-.1378.5621.3189,1.0529.6334,1.6621.8466,1.5441.7324,4.054.7093,4.544-1.2598.4339-1.2103.265-2.5189.8467-3.686.582-1.1699,1.3716-2.1611,2.1118-3.2007.1201-.1685.3545-.208.5229-.0879.1757.1241.21.3737.0747.541-1.127,1.4375-2.58,2.7819-2.769,4.6816-.3258,4.5589-3.9776,4.444-7.1045,2.3857-1.1322-.5858-2.4261-.0558-3.5917.1886-1.3824.3511-2.8879.2617-4.2529-.1797-.1479-.0381-.3726-.1523-.458-.3213-1.2019-1.9529-1.1315-4.3583-1.1558-6.5532.0064-.5136.7871-.4856.7495.0312h0Z" style="fill:#c7bbab;"/><path d="M23.149,26.6522c.8116,1.0407,2.4144,1.5361,2.9161,2.8808.2286.8293,1.0606,1.324,1.6166,1.9835.8791,1.099,1.1877,2.6609.7501,4-.6163,1.6956-2.5266,2.7691-2.3755,4.7158.0631,1.8333,1.371,3.257,2.6245,4.4756.0986.0967.1001.2554.0034.354-.0967.0991-.2554.1006-.354.0034-.5756-.7078-1.1653-1.4241-1.6411-2.2217-.9988-1.5646-1.1399-3.688.1154-5.1455.5253-.7305,1.1478-1.4141,1.392-2.2583.493-1.7748-.3934-3.4518-1.814-4.5556-.329-.3209-.6586-.7183-.7997-1.2222-.1104-.3828-.1665-.8311-.4937-1.1553-.6387-.627-1.479-.9561-2.2764-1.4849-.1172-.0767-.1494-.2339-.0728-.3506.0904-.1424.3058-.1529.4092-.019h0Z" style="fill:#c7bbab;"/><path d="M44.0533,10.9002c-1.3999,1.0921-2.7799,2.3893-4.0523,3.6894-.8849,2.0531-1.2049,4.6148-3.2296,5.9722-2.0001,1.1987-4.759,2.1923-5.0214,4.8281-.2998,1.6555.3459,3.1945.8399,4.7579.2402.7974.4501,1.6314.4467,2.4966.0448,1.7152-.9124,3.2675-1.5318,4.7549-.2934.7652-.2589,1.4644.1349,2.2017.7094,1.5449.9082,3.2988,1.9961,4.3599.1517.1442.1579.3855.0107.5352-.1445.1484-.3823.1514-.5303.0068-1.2876-1.3993-1.3471-3.2283-1.9863-4.6792-.1646-.3672-.3423-.8193-.3501-1.2871-.0203-1.3246.882-2.4285,1.3281-3.5591,1.6305-3.2352-1.2529-6.3402-.7491-9.6416.2452-3.8241,5.1862-3.9801,6.6477-6.9677.7206-1.2275.8766-2.8244,1.5267-4.0905,1.2695-1.4109,2.5851-2.7279,4.0713-3.978.1607-.1308.397-.1064.5274.0542.1386.1689.1011.4229-.0786.5464h0Z" style="fill:#c7bbab;"/><path d="M49.7198,17.3587c-.5728-.1387-1.3335.2192-2.0649.459-2.1877.7177-4.26,1.928-4.996,4.2491-.5806,1.5291-2.3915,2.1027-3.1436,3.4423-.4178.6848-.3166,1.3138-.0043,2.0483.2836.8145.1489,1.689-.0816,2.4448-.7764,1.9601-2.5228,7.9892,1.5728,6.3326,1.2853-.8132,2.9156-1.4719,4.4951-1.5083,0-.0001,4.687-.3761,4.687-.3761.2065-.0166.3872.1372.4038.3438.0174.2112-.1458.3952-.3569.4048-1.6001.0996-5.4458.0958-6.9248.6068-.7144.2115-1.3257.6598-2.0718,1.0187-1.1243.6309-2.9066.4164-3.2231-1.1051-.4232-1.991.3787-4.0019.9922-5.8417.2119-.73.3101-1.4868.063-2.1699-.3492-.6993-.4599-1.731.0182-2.4419.8446-1.5107,2.5814-2.0239,3.0897-3.4507.8614-2.8483,3.7608-4.162,6.3609-5.0492.3923-.1283.8545-.2364,1.3442-.1402.4892.1046.332.8439-.1597.7329h0Z" style="fill:#c7bbab;"/><path d="M49.8605,29.6971c-1.7652-.0175-5.8421.0384-5.7467-2.4995.3236-1.6411,1.8854-2.723,2.3624-4.2452.1045-.3018.19-.6406.4263-.9321.7121-.7849,2.0516-.3554,2.8442-.6753.1336-.063.2968-.0023.3477.1387.0514.1371-.0287.2918-.1704.3286-1.2989.3594-2.8232-.491-3.1996,1.2291-.4835,1.2802-1.5523,2.1415-2.1422,3.2856-1.6199,3.0923,3.285,3.3569,5.2411,2.8715.3489-.0626.3939.5081.0372.4986h0Z" style="fill:#c7bbab;"/><path d="M49.8352,38.4525c-1.0103-.0265-2.0859-.0363-2.9455.4951-.3992.2468-.7245.596-1.106.8693-1.4198,1.017-3.457.8874-4.8026,2.0008-.8992.7441-1.3182,1.9044-1.9704,2.8723" style="fill:none; stroke:#c7bbab; stroke-linecap:round; stroke-linejoin:round; stroke-width:.5px;"/></g></g></svg>