<?xml version="1.0" encoding="UTF-8"?><svg id="Layer_2" xmlns="http://www.w3.org/2000/svg" viewBox="0 0 194.9957 252.1055"><g id="Components"><g id="_55a52c7b-f5a5-41a6-9f0d-3d63a4ce9d3e_5"><path d="M55.6813.0304l48.7376,19.7204c1.6048.6494,2.9248,1.8347,3.7283,3.3681,1.9283,3.68,5.8222,11.1303,3.6998,12.9352-3.8977,3.3146-9.0636,4.3574-13.2986,7.0759-1.2111.7774-2.1287,1.8814-3.4162,2.5612-1.1943.6306-2.4758,1.1041-3.7654,1.4979-2.3344.7127-5.0836,1.4065-7.538.9881-4.4117-.7521-4.9802-1.6517-7.5322-3.875-2.6386-2.2987-3.9398-4.7219-4.8901-6.9368-1.8039-4.2045-2.9383-13.131-7.9483-16.0781-5.0101-2.9471-7.7739-4.8413-8.9294-6.8045-2.4193-4.1105-1.0963-11.9069.5148-14.0991.179-.2436.3575-.4666.6377-.3532Z" style="fill:#fff;"/><path d="M102.0574,48.8434c-.7276.062-1.4296.227-2.1091.4947-3.312,1.3047-13.1869,5.6173-13.4646,10.7539-.3337,6.1739-.3338,12.6815,1.8351,14.6847,2.0923,1.9324,4.4152,3.5885,6.5954,5.4163,1.5505,1.2999,3.3996,3.7287,5.7456,3.2618,1.6772-.3338,8.1864-3.7004,9.6855-7.409.9916-2.4532,4.027-5.6706,2.1173-8.547-1.0939-1.6476-1.8701-4.2417-2.3346-6.5754-.6792-3.4125,5.9662-12.397.6368-12.6135-1.4857-.0604-6.5133.3467-8.7074.5335Z" style="fill:#fff;"/><path d="M156.7164,43.6665v45.2224s-6.9162.0193-9.045-1.9458c-2.1289-1.9651-5.6449-4.1725-9.8786-7.1973-2.3566-1.6837-5.637-4.5835-8.4862-5.1115-2.7768-.5145-6.1557-1.1764-7.8261-3.7158-1.9366-2.9441-2.8784-6.7969-1.7616-10.2628,1.1503-3.57,1.489-7.2973-.0419-10.8417-2.1533-4.9853-.4785-10.6079.957-12.1631,1.4356-1.5552,5.2587-4.7205,8.1349-4.6931,2.8761.0275,27.9476,10.7085,27.9476,10.7085Z" style="fill:#fff;"/><path d="M106.3151,129.5352h50.4013v-21.6495s-6.2022-8.8785-10.6074-10.1807-3.4146-1.2662-5.6567-1.9565c-2.2421-.6904-4.6692-.7277-7.0767-2.2782-4.112-2.6483-7.7773-9.3889-10.9303-10.8387-3.153-1.4498-8.2678,0-8.2678,0,0,0-4.0799,2.6305-5.4651,4.7635-2.209,3.4016-6.4835,5.7901-6.4147,10.5969.0762,5.3198-3.9114,6.6259-4.7743,16.6724-.3428,3.9912,2.8511,8.8366,4.6729,10.8387,1.8217,2.002,4.1189,4.0321,4.1189,4.0321Z" style="fill:#fff;"/><path d="M44.4385,106.5461v22.9891s45.1444.1972,45.1444.1972c.1372,0,.259-.0734.3183-.1974.7084-1.4831.6882-3.6331.8196-5.2329.2227-2.712,1.5737-3.7474.8568-8.6228-1.5986-10.8706,4.6921-14.4264,3.2981-18.3545-3.5756-10.0753-9.2094-13.5545-11.615-14.3395-6.1521-2.0075-9.8942,10.6758-14.7697,12.9055-4.9571,2.2671-5.638,3.4897-9.6533,5.4793-6.0285,2.9871-13.9154,3.7353-14.3992,5.1761Z" style="fill:#fff;"/><path d="M44.4385,28.3614v60.5558s.33.4751,4.2928,2.7798c2.9543,1.7182,7.937,2.85,12.7578,1.0516,4.4948-1.6768,21.0517-17.3863,19.0977-29.5216-.6842-4.2491.5127-6.9622-3.3145-7.8925-4.559-1.1081-9.8723-6.7703-11.3918-8.5621-2.1963-2.5898-.2392-9.7073-4.3075-13.0359-4.0683-3.3286-15.2924-6.8709-17.1345-5.3751Z" style="fill:#fff;"/><line x1="162.4358" y1="154.2917" x2="36.967" y2="154.2917" style="fill:#fff;"/><rect x="36.9668" y="153.9166" width="125.4687" height=".75" style="fill:#fff;"/><path d="M26.2798,207.365c.5751,0,1.1445-.0794,1.7076-.2382.563-.158,1.0675-.393,1.5143-.7034.4459-.3112.8036-.693,1.0739-1.1445.2695-.4516.4042-.9769.4042-1.5752,0-.7162-.1845-1.3531-.5542-1.9105-.3697-.5574-.8542-1.0675-1.4525-1.5311-.5983-.4636-1.2825-.9007-2.0508-1.3113-.7684-.4106-1.552-.8213-2.35-1.2327-.798-.4106-1.5816-.8421-2.35-1.2937-.7684-.4516-1.4525-.956-2.0508-1.5143-.5983-.5566-1.0828-1.179-1.4525-1.8656-.3689-.6866-.5542-1.4758-.5542-2.3676s.1676-1.7188.5021-2.4823c.3345-.7627.8237-1.4228,1.4693-1.9803s1.4405-.9945,2.3853-1.3113,2.0276-.4756,3.2483-.4756c1.1028,0,2.0885.1179,2.9571.3521.8686.235,1.6314.5815,2.2882,1.0386.6569.458,1.2151,1.021,1.6723,1.6899.458.6689.8277,1.4437,1.1092,2.3235l-2.0067.9159c-.235-.7162-.5342-1.3699-.8975-1.9634-.3641-.5919-.7988-1.0996-1.3033-1.5223s-1.0884-.7483-1.7509-.9769c-.6633-.2286-1.4116-.3433-2.2449-.3433-.7395,0-1.3851.1027-1.9361.308-.5518.2053-1.0122.4756-1.3819.8101s-.6456.7098-.8277,1.1261c-.1821.4171-.2727.8421-.2727,1.2761,0,.6104.1877,1.171.5638,1.6819.3754.5101.8734.9913,1.4958,1.4429.6224.4524,1.329.8895,2.1214,1.3113.7924.4227,1.5985.851,2.4206,1.2857.8213.4339,1.6282.8863,2.4206,1.3555.7916.4692,1.499.9825,2.1206,1.5399.6224.5574,1.1213,1.1678,1.4966,1.8311s.563,1.4052.563,2.2265c0,.9272-.1756,1.799-.5277,2.6139-.3521.8165-.8806,1.5263-1.584,2.1302-.7042.6047-1.5792,1.0828-2.6235,1.4349-1.0443.3521-2.2594.5277-3.6437.5277-1.1269,0-2.1302-.1227-3.0101-.3697-.8806-.2462-1.6578-.6039-2.3323-1.0731-.6753-.4692-1.2528-1.0419-1.734-1.7164-.4812-.6753-.8742-1.4461-1.1798-2.3147l2.0949-.863c.2462.7627.5783,1.4437.9945,2.042.4163.5983.9007,1.106,1.4525,1.5231.5518.4163,1.1646.7363,1.8399.9592.6745.223,1.3932.3345,2.1559.3345Z" style="fill:#fff;"/><path d="M55.2698,208.8432c-1.8078,0-3.4945-.3224-5.0609-.9681-1.5672-.6448-2.9283-1.5279-4.084-2.6492-1.1565-1.1205-2.0661-2.4294-2.7286-3.9252-.6633-1.4966-.9945-3.0951-.9945-4.797,0-1.1148.1492-2.1888.4483-3.2218.3-1.0322.725-1.9947,1.2769-2.8866.551-.8919,1.2167-1.7043,1.9979-2.4382.7804-.7331,1.6458-1.3611,2.5962-1.884.9504-.5213,1.977-.9264,3.0807-1.2143,1.1028-.2871,2.2594-.4315,3.468-.4315s2.3644.1444,3.468.4315c1.1028.2879,2.1326.693,3.0887,1.2143.9568.5229,1.8222,1.1509,2.597,1.884.7748.7339,1.4405,1.5463,1.9979,2.4382s.9857,1.8543,1.2849,2.8866c.2992,1.033.4491,2.107.4491,3.2218,0,1.1261-.15,2.2152-.4491,3.2651-.2992,1.0507-.7275,2.0332-1.2849,2.9483-.5574.9159-1.2231,1.7493-1.9979,2.5-.7748.7515-1.6402,1.3972-2.597,1.9361-.956.5406-1.9859.9568-3.0887,1.2504-1.1036.2927-2.2594.4395-3.468.4395ZM55.2698,207.6818c1.3378,0,2.52-.2791,3.5466-.8365,1.0274-.5574,1.8928-1.3346,2.597-2.3323.7042-.9969,1.2352-2.1768,1.5929-3.5378.3577-1.3619.5366-2.8521.5366-4.4714,0-1.6081-.1789-3.0807-.5366-4.4185s-.8887-2.4912-1.5929-3.4592c-.7042-.9681-1.5696-1.7188-2.597-2.2529-1.0266-.5342-2.2088-.8012-3.5466-.8012-1.3619,0-2.5553.2671-3.5827.8012-1.0266.5342-1.8896,1.2849-2.5874,2.2529-.6986.9681-1.2231,2.1214-1.5752,3.4592-.3521,1.3378-.5285,2.8104-.5285,4.4185,0,1.6193.1765,3.1095.5285,4.4714.3521,1.3611.8766,2.5409,1.5752,3.5378.6978.9977,1.5608,1.7749,2.5874,2.3323,1.0274.5574,2.2209.8365,3.5827.8365Z" style="fill:#fff;"/><path d="M75.2479,184.9558h3.9252v15.1563c0,.9977.17,1.9337.5109,2.808.4919,1.2646,1.3721,2.4263,2.451,3.2486.5969.4549,1.2742.8117,2.0015,1.0045,1.3696.3631,2.8315.1205,4.1172-.4281.8349-.3563,1.596-.8707,2.2243-1.528.628-.6569,1.1092-1.4228,1.4437-2.2971s.5013-1.8102.5013-2.808v-15.1563h2.9803v15.1563c0,1.1975-.1933,2.3235-.5807,3.3798s-.9945,1.9803-1.8222,2.7727c-.8269.7924-1.8864,1.4204-3.1769,1.8832-1.2913.4636-2.84.6954-4.6479.6954-1.6073,0-3.0301-.2318-4.2685-.6954-1.2384-.4628-2.277-1.094-3.1159-1.892-.8389-.798-1.4726-1.734-1.9008-2.808s-.6424-2.2209-.6424-3.4416v-15.0504Z" style="fill:#fff;"/><path d="M116.8075,186.0996c-1.4084,0-2.7085.2494-3.8995.7483s-2.2177,1.2151-3.0807,2.1479c-.8622.9328-1.5343,2.0597-2.0155,3.3798s-.7218,2.7959-.7218,4.4273c0,1.6434.2615,3.1248.7836,4.4449.5221,1.3202,1.2376,2.4438,2.1479,3.371.9087.9272,1.9803,1.6402,3.2122,2.1391s2.5529.7475,3.9605.7475c1.021,0,1.9426-.1371,2.7638-.4131.8213-.2759,1.5608-.6721,2.2185-1.1886v-8.1857h-4.4185v-1.3907h8.3437v10.263c-.6809.3641-1.3675.6866-2.0597.9681s-1.4405.5165-2.2441.7042c-.8045.1877-1.6875.3312-2.6492.4315-.9625.0995-2.054.1492-3.2748.1492-1.2905,0-2.5168-.1436-3.679-.4307-1.1614-.2879-2.2385-.6954-3.2298-1.2239-.9921-.5277-1.8872-1.159-2.6844-1.892-.7988-.7331-1.4766-1.5463-2.0332-2.4382-.5582-.8919-.9889-1.8487-1.2945-2.8697-.3048-1.021-.4572-2.0829-.4572-3.1857,0-1.0916.1436-2.1567.4307-3.1953.2879-1.0386.7018-2.0179,1.2416-2.9395.5398-.9216,1.1967-1.7629,1.9714-2.5264.7748-.7627,1.649-1.4196,2.6227-1.9714.9745-.551,2.0364-.9793,3.1865-1.2849,1.1501-.3048,2.37-.458,3.6613-.458,1.2319,0,2.3733.1676,3.4239.5021,1.0499.3345,2.0067.7772,2.8697,1.329.8622.5518,1.6282,1.1878,2.2971,1.9097.6689.7218,1.244,1.4766,1.7252,2.2626l-1.6899,1.1261c-.9857-1.8888-2.0805-3.2707-3.2836-4.145-1.2031-.8742-2.585-1.3121-4.145-1.3121Z" style="fill:#fff;"/><path d="M138.1756,197.102v11.1958h-3.9252v-23.3419h3.9252v10.6319h11.7243v-10.6319h3.9252v23.3419h-3.9252v-11.1958h-11.7243Z" style="fill:#fff;"/><path d="M180.6864,184.9558l-.0228,2.4545h-8.4495l.0228,20.8874h-3.926l-.0228-20.8874h-8.4495l.0228-2.4545h20.8251Z" style="fill:#fff;"/><path d="M12.2344,227.6896l10.984,23.8705h-3.9958l-3.5555-7.7806H5.6504l-3.679,7.7806H0l11.2487-23.8705h.9857ZM6.337,242.2652h8.6084l-4.2428-9.2412-4.3655,9.2412Z" style="fill:#fff;"/><path d="M43.689,228.2182v1.5135h-11.389v8.3445h8.2386v1.5135h-8.2386v11.9705h-3.926v-23.3419h15.3151Z" style="fill:#fff;"/><path d="M67.5579,228.2182l.0088,2.2086h-8.4495l-.0088,21.1333h-3.926l.0088-21.1333h-8.4495l-.0088-2.2086h20.8251Z" style="fill:#fff;"/><path d="M89.789,228.2182v1.5135h-12.305v8.3445h8.2386v1.5135h-8.2386v10.4563h12.305v1.5143h-16.2302v-23.3419h16.2302Z" style="fill:#fff;"/><path d="M96.5647,228.2182h8.0975c1.3964,0,2.6227.1492,3.679.4483,1.0563.3,1.9361.7194,2.6403,1.2592.7042.5398,1.2352,1.1822,1.5929,1.9273.3585.7451.5374,1.5576.5374,2.4382,0,.7275-.138,1.4084-.4139,2.042s-.6633,1.2055-1.1614,1.7164c-.4997.5101-1.1004.9504-1.8046,1.3202-.7042.3697-1.479.6601-2.3235.871l8.5025,11.3193h-4.5596l-8.1151-10.9672h-2.7462v10.9672h-3.9252v-23.3419ZM100.4899,239.4139h2.2706c.8806,0,1.6931-.1171,2.4382-.3521s1.3907-.5662,1.9369-.9945c.5454-.4283.9705-.948,1.2761-1.5584.3048-.6096.4572-1.2961.4572-2.0597,0-.7042-.1203-1.349-.3609-1.9361-.2406-.5863-.5807-1.0884-1.021-1.5046-.4395-.4171-.9617-.7427-1.5664-.9777-.6047-.2342-1.2648-.3521-1.9803-.3521h-3.4504v9.7352Z" style="fill:#fff;"/><path d="M135.2345,239.977c0,1.6314.2462,3.0959.7395,4.392.4925,1.2969,1.1702,2.3941,2.0332,3.2916.8622.8983,1.88,1.5848,3.0542,2.0597,1.1734.4756,2.4462.713,3.8193.713.8213,0,1.6137-.158,2.3765-.4748.7627-.3168,1.4701-.7307,2.1214-1.2416.6513-.5101,1.2352-1.0852,1.7517-1.7252.5165-.6392.9384-1.2873,1.2672-1.945l1.6546,1.0563c-.4812.7868-1.0499,1.5407-1.7076,2.2618-.6569.7218-1.4164,1.3619-2.2794,1.9193-.8622.5574-1.8367,1.0002-2.9219,1.329-1.086.328-2.2979.4925-3.6357.4925-1.9361,0-3.6934-.3224-5.2718-.9681-1.5784-.6448-2.9307-1.5191-4.0575-2.6227-1.1269-1.1028-1.9979-2.3909-2.6139-3.8643-.6168-1.4726-.9248-3.0301-.9248-4.6735,0-1.0916.1412-2.1567.4227-3.1945.2815-1.0386.689-2.0131,1.2231-2.9227s1.1854-1.7428,1.9546-2.4992c.7684-.7571,1.637-1.4084,2.605-1.9546.9681-.5454,2.0268-.9681,3.1777-1.2672,1.1493-.2992,2.3765-.4491,3.679-.4491,1.244,0,2.3909.1676,3.4416.5021,1.0499.3345,2.0067.7772,2.8689,1.329.863.5518,1.6314,1.1878,2.3059,1.9097.6753.7218,1.2528,1.4766,1.734,2.2626l-1.7076,1.1261c-.9737-1.8888-2.0653-3.2707-3.2739-4.145-1.2087-.8742-2.5994-1.3121-4.1722-1.3121-1.3498,0-2.6115.247-3.7849.7395-1.1734.4933-2.1976,1.1975-3.0718,2.1126-.8742.9151-1.5608,2.0276-2.0589,3.3357-.4997,1.3089-.7483,2.7847-.7483,4.4273Z" style="fill:#fff;"/><path d="M173.5025,252.1055c-1.8078,0-3.4945-.3224-5.0609-.9681-1.5672-.6448-2.9283-1.5279-4.084-2.6492-1.1565-1.1205-2.0661-2.4294-2.7286-3.9252-.6633-1.4966-.9945-3.0951-.9945-4.797,0-1.1148.1492-2.1888.4483-3.2218.3-1.0322.725-1.9947,1.2769-2.8866.551-.8919,1.2167-1.7043,1.9979-2.4382.7804-.7331,1.6458-1.3611,2.5962-1.884.9504-.5213,1.977-.9264,3.0807-1.2143,1.1028-.2871,2.2594-.4315,3.468-.4315s2.3644.1444,3.468.4315c1.1028.2879,2.1326.693,3.0887,1.2143.9568.5229,1.8222,1.1509,2.597,1.884.7748.7339,1.4405,1.5463,1.9979,2.4382.5574.8919.9857,1.8543,1.2849,2.8866.2992,1.033.4491,2.107.4491,3.2218,0,1.1261-.15,2.2152-.4491,3.2651-.2992,1.0507-.7275,2.0332-1.2849,2.9483-.5574.9159-1.2231,1.7493-1.9979,2.5-.7748.7515-1.6402,1.3972-2.597,1.9361-.956.5406-1.9859.9568-3.0887,1.2504-1.1036.2927-2.2594.4395-3.468.4395ZM173.5025,250.9441c1.3378,0,2.52-.2791,3.5466-.8365,1.0274-.5574,1.8928-1.3346,2.597-2.3323.7042-.9969,1.2352-2.1768,1.5929-3.5378.3577-1.3619.5366-2.8521.5366-4.4714,0-1.6081-.1789-3.0807-.5366-4.4185s-.8887-2.4912-1.5929-3.4592c-.7042-.9681-1.5696-1.7188-2.597-2.2529-1.0266-.5342-2.2088-.8012-3.5466-.8012-1.3619,0-2.5553.2671-3.5827.8012-1.0266.5342-1.8896,1.2849-2.5874,2.2529-.6986.9681-1.2231,2.1214-1.5752,3.4592-.3521,1.3378-.5285,2.8104-.5285,4.4185,0,1.6193.1765,3.1095.5285,4.4714.3521,1.3611.8766,2.5409,1.5752,3.5378.6978.9977,1.5608,1.7749,2.5874,2.3323,1.0274.5574,2.2209.8365,3.5827.8365Z" style="fill:#fff;"/><path d="M193.0772,248.3912c.2575,0,.5045.0505.7387.15.235.0995.4403.2318.6168.3962.1756.1644.3136.3609.4131.5895.1003.2286.15.4668.15.713,0,.2703-.0497.5165-.15.7395-.0995.223-.2374.4195-.4131.5895-.1765.17-.3818.3024-.6168.3962-.2342.0938-.4812.1404-.7387.1404-.2703,0-.5229-.0465-.7571-.1404-.235-.0938-.4403-.2262-.616-.3962-.1765-.17-.3144-.3665-.4139-.5895-.1003-.223-.15-.4692-.15-.7395,0-.2462.0497-.4844.15-.713.0995-.2286.2374-.4251.4139-.5895.1756-.1644.381-.2968.616-.3962.2342-.0995.4868-.15.7571-.15Z" style="fill:#fff;"/></g></g></svg>